<svg width="172" height="44" viewBox="0 0 172 44" fill="none" xmlns="http://www.w3.org/2000/svg">
<path d="M42.3789 5.87499C42.3789 2.90647 40.0072 0.500009 37.0815 0.500009H21.1894C9.48684 0.500009 0 10.1259 0 22C0 33.8741 9.48684 43.5 21.1894 43.5H37.0815C40.0072 43.5 42.3789 41.0935 42.3789 38.125C42.3789 35.1564 40.0072 32.75 37.0815 32.75L21.1894 32.75C15.3381 32.75 10.5947 27.937 10.5947 22C10.5947 16.0629 15.3381 11.25 21.1894 11.25L37.0815 11.25C40.0072 11.25 42.3789 8.84351 42.3789 5.87499Z" fill="#5D5FEF"/>
<path d="M85.5917 5.87498C85.5917 2.90646 83.22 0.499999 80.2943 0.5L64.4022 0.500003C52.6996 0.500005 43.2128 10.1259 43.2128 22C43.2128 33.8741 52.6996 43.5 64.4022 43.5L80.2943 43.5C83.2199 43.5 85.5917 41.0935 85.5917 38.125C85.5917 35.1564 83.2199 32.75 80.2943 32.75L64.4022 32.75C58.5509 32.75 53.8075 27.937 53.8075 22C53.8075 16.0629 58.5509 11.25 64.4022 11.25L80.2943 11.25C83.22 11.25 85.5917 8.84351 85.5917 5.87498Z" fill="#5D5FEF"/>
<path fill-rule="evenodd" clip-rule="evenodd" d="M127.953 22C127.953 10.1307 118.47 0.5 106.772 0.5C95.0744 0.5 85.5914 10.1307 85.5914 22C85.5914 33.8693 95.0744 43.5 106.772 43.5C118.47 43.5 127.953 33.8693 127.953 22ZM107.349 32.75C113.2 32.75 117.944 27.937 117.944 22C117.944 16.0629 113.2 11.25 107.349 11.25L106.196 11.25C100.344 11.25 95.6009 16.0629 95.6009 22C95.6009 27.937 100.344 32.75 106.196 32.75H107.349Z" fill="#E78147"/>
<path d="M172 5.87498C172 2.90646 169.628 0.499999 166.703 0.5L150.811 0.500003C139.108 0.500005 129.621 10.1259 129.621 22C129.621 33.8741 139.108 43.5 150.811 43.5L166.703 43.5C169.628 43.5 172 41.0935 172 38.1249C172 35.1564 169.628 32.7499 166.703 32.7499L150.811 32.75C144.959 32.75 140.216 27.937 140.216 22C140.216 16.0629 144.959 11.25 150.811 11.25L166.703 11.25C169.628 11.25 172 8.8435 172 5.87498Z" fill="#5D5FEF"/>
</svg>
