<svg width="223" height="223" viewBox="0 0 223 223" fill="none" xmlns="http://www.w3.org/2000/svg">
<g clip-path="url(#clip0_35_4120)">
<rect x="21" y="42" width="181" height="181" rx="20" fill="#F5F5F5"/>
<path d="M181 224.941C181 251.97 149.66 231.709 111 231.709C72.3401 231.709 41 251.97 41 224.941C41 197.912 72.3401 176 111 176C149.66 176 181 197.912 181 224.941Z" fill="#C8C8C8"/>
<path d="M181 224.941C181 251.97 149.66 231.709 111 231.709C72.3401 231.709 41 251.97 41 224.941C41 197.912 72.3401 176 111 176C149.66 176 181 197.912 181 224.941Z" fill="url(#paint0_linear_35_4120)" fill-opacity="0.4"/>
<circle cx="111" cy="157" r="32" fill="#C8C8C8"/>
<circle cx="111" cy="157" r="32" fill="url(#paint1_radial_35_4120)" fill-opacity="0.4"/>
<path d="M91.7623 101.323C92.689 101.588 92.7421 102.881 91.8403 103.221L22.3449 129.396C21.7931 129.604 21.1822 129.292 21.0275 128.723L7.46508 78.8416C7.26078 78.0902 7.95573 77.404 8.7045 77.6177L91.7623 101.323Z" fill="#878787"/>
<path d="M91.7623 101.323C92.689 101.588 92.7421 102.881 91.8403 103.221L22.3449 129.396C21.7931 129.604 21.1822 129.292 21.0275 128.723L7.46508 78.8416C7.26078 78.0902 7.95573 77.404 8.7045 77.6177L91.7623 101.323Z" fill="url(#paint2_linear_35_4120)" fill-opacity="0.4"/>
<circle cx="42.5" cy="89.5" r="7.5" fill="#878787"/>
<circle cx="42.5" cy="89.5" r="7.5" fill="url(#paint3_linear_35_4120)" fill-opacity="0.5"/>
<circle cx="42.5" cy="89.5" r="17.5" fill="#878787"/>
<circle cx="42.5" cy="89.5" r="17.5" fill="url(#paint4_linear_35_4120)" fill-opacity="0.5"/>
<circle cx="42.5" cy="89.5" r="24.5" fill="#878787"/>
<circle cx="42.5" cy="89.5" r="24.5" fill="url(#paint5_linear_35_4120)" fill-opacity="0.5"/>
<path d="M92.1406 101.435C93.1042 101.446 93.4954 102.68 92.7146 103.245L32.5415 146.765C32.0637 147.11 31.3922 146.97 31.0934 146.461L4.89827 101.898C4.50367 101.226 4.99383 100.382 5.77244 100.391L92.1406 101.435Z" fill="#C8C8C8"/>
<path d="M92.1406 101.435C93.1042 101.446 93.4954 102.68 92.7146 103.245L32.5415 146.765C32.0637 147.11 31.3922 146.97 31.0934 146.461L4.89827 101.898C4.50367 101.226 4.99383 100.382 5.77244 100.391L92.1406 101.435Z" fill="url(#paint6_linear_35_4120)" fill-opacity="0.4"/>
</g>
<defs>
<linearGradient id="paint0_linear_35_4120" x1="111" y1="176" x2="111" y2="239" gradientUnits="userSpaceOnUse">
<stop stop-color="#5D5FEF" stop-opacity="0"/>
<stop offset="1" stop-color="#5D5FEF"/>
</linearGradient>
<radialGradient id="paint1_radial_35_4120" cx="0" cy="0" r="1" gradientUnits="userSpaceOnUse" gradientTransform="translate(111 128.5) rotate(90) scale(60.5 59.5692)">
<stop stop-color="#ECECFF"/>
<stop offset="0.450641" stop-color="#5D5FEF" stop-opacity="0"/>
<stop offset="1" stop-color="#5D5FEF" stop-opacity="0.7"/>
</radialGradient>
<linearGradient id="paint2_linear_35_4120" x1="87" y1="100" x2="18.5" y2="88.5" gradientUnits="userSpaceOnUse">
<stop stop-color="white" stop-opacity="0"/>
<stop offset="1" stop-color="white"/>
</linearGradient>
<linearGradient id="paint3_linear_35_4120" x1="39.4388" y1="92.7143" x2="49.3878" y2="86.7449" gradientUnits="userSpaceOnUse">
<stop stop-color="white" stop-opacity="0"/>
<stop offset="1" stop-color="white"/>
</linearGradient>
<linearGradient id="paint4_linear_35_4120" x1="35.3571" y1="97" x2="58.5714" y2="83.0714" gradientUnits="userSpaceOnUse">
<stop stop-color="white" stop-opacity="0"/>
<stop offset="1" stop-color="white"/>
</linearGradient>
<linearGradient id="paint5_linear_35_4120" x1="32.5" y1="100" x2="65" y2="80.5" gradientUnits="userSpaceOnUse">
<stop stop-color="white" stop-opacity="0"/>
<stop offset="1" stop-color="white"/>
</linearGradient>
<linearGradient id="paint6_linear_35_4120" x1="44.4111" y1="86.1848" x2="62.1445" y2="136.705" gradientUnits="userSpaceOnUse">
<stop stop-color="white" stop-opacity="0"/>
<stop offset="1" stop-color="white"/>
</linearGradient>
<clipPath id="clip0_35_4120">
<rect width="223" height="223" fill="white"/>
</clipPath>
</defs>
</svg>
