<svg width="198" height="68" viewBox="0 0 198 68" fill="none" xmlns="http://www.w3.org/2000/svg">
<path fill-rule="evenodd" clip-rule="evenodd" d="M20.8301 67.8986V10.4209H31.2C34.592 10.4209 36.4965 12.0582 36.4965 15.3354V52.3553C36.4965 55.7605 34.5946 57.4644 31.2 57.4644H26.0814V67.9013H22.1848L20.8301 67.8986ZM31.2796 52.2299V15.6394H26.0814V52.2273H31.2796V52.2299Z" fill="#808285"/>
<path fill-rule="evenodd" clip-rule="evenodd" d="M15.5628 52.2299C15.5628 55.6351 13.8655 57.4377 10.4735 57.4377H5.08932C1.91248 57.4377 0.215154 55.7018 0 52.4246V10.4209H5.08932L5.20088 52.2299H10.4735V10.4209H15.5628V52.2299Z" fill="#808285"/>
<path d="M41.6495 68L41.6894 57.4831L46.8185 57.4777L46.8345 15.6554L52.0646 15.6501V10.4556L41.6495 10.4263V0H197.963L198 67.9627L41.6495 68Z" fill="#2E3192"/>
<path fill-rule="evenodd" clip-rule="evenodd" d="M58.7955 57.3444V44.5049H57.3744V43.425H61.4836V44.5049H60.0625V57.3444H58.7955Z" fill="white"/>
<path fill-rule="evenodd" clip-rule="evenodd" d="M62.7506 57.3444V46.8382H63.9406V57.3444H62.7506ZM62.7134 44.8889V43.425H63.9804V44.8889H62.7134Z" fill="white"/>
<path fill-rule="evenodd" clip-rule="evenodd" d="M65.5157 57.3444V46.8382H66.6286V47.5528H66.6685C67.0404 47.0008 67.4999 46.7235 68.0524 46.7235C68.5385 46.7235 68.9103 46.9422 69.1653 47.3795C69.5239 46.9422 69.933 46.7235 70.3952 46.7235C70.8547 46.7235 71.208 46.8782 71.4523 47.1848C71.6967 47.4808 71.8162 47.8541 71.8162 48.3021V57.3444H70.6263V48.7074C70.6263 48.1021 70.427 47.8008 70.0313 47.8008C69.5186 47.8008 69.2636 48.1208 69.2636 48.7661V57.3444H68.0736V48.7074C68.0736 48.1021 67.8744 47.8008 67.4786 47.8008C66.966 47.8008 66.711 48.1208 66.711 48.7661V57.3444H65.5157Z" fill="white"/>
<path fill-rule="evenodd" clip-rule="evenodd" d="M73.3888 57.3444V46.8382H74.5787V57.3444H73.3888ZM73.3516 44.8889V43.425H74.6186V44.8889H73.3516Z" fill="white"/>
<path fill-rule="evenodd" clip-rule="evenodd" d="M78.5365 49.9608V48.3982C78.5365 47.9235 78.3319 47.6862 77.9229 47.6862C77.5138 47.6862 77.3093 47.9368 77.3093 48.4381V49.6141C77.3093 49.8968 77.4554 50.2434 77.7502 50.6567L79.2483 52.758C79.5299 53.158 79.6707 53.542 79.6707 53.9153V55.6885C79.6707 56.8698 79.0757 57.4618 77.8857 57.4618C76.7063 57.4618 76.1193 56.9152 76.1193 55.8219V53.9899H77.3093V55.6085C77.3093 56.2005 77.5085 56.4965 77.9043 56.4965C78.2895 56.4965 78.4807 56.1952 78.4807 55.5899V54.3179C78.4807 53.9446 78.3346 53.5606 78.0398 53.1606L76.6771 51.2914C76.3053 50.7767 76.1193 50.3101 76.1193 49.8834V48.5341C76.1193 47.9688 76.292 47.5262 76.6373 47.2035C76.9826 46.8809 77.4315 46.7209 77.9813 46.7209C78.5577 46.7209 78.9933 46.8942 79.2882 47.2409C79.5326 47.5102 79.6521 47.8382 79.6521 48.2248V49.9608H78.5365ZM76.9242 60.003L77.4049 57.7871H78.4037L77.6546 60.003H76.9242Z" fill="white"/>
<path fill-rule="evenodd" clip-rule="evenodd" d="M83.8357 55.4352V48.7448C83.8357 48.0382 83.5727 47.6862 83.0494 47.6862C82.5235 47.6862 82.2632 48.0382 82.2632 48.7448V55.4352C82.2632 56.1419 82.5262 56.4965 83.0494 56.4965C83.5727 56.4965 83.8357 56.1419 83.8357 55.4352ZM81.0706 55.4352V48.7448C81.0706 47.3955 81.7293 46.7209 83.0494 46.7209C84.3669 46.7209 85.0283 47.3955 85.0283 48.7448V55.4352C85.0283 56.7845 84.3696 57.4591 83.0494 57.4591C81.7293 57.4591 81.0706 56.7845 81.0706 55.4352Z" fill="white"/>
<path fill-rule="evenodd" clip-rule="evenodd" d="M89.1747 55.4165V51.8113C88.7789 51.8113 88.4389 51.8887 88.1573 52.0433C87.7855 52.2487 87.5995 52.55 87.5995 52.95V55.3392C87.5995 56.1098 87.8492 56.4965 88.3486 56.4965C88.8984 56.4965 89.1747 56.1365 89.1747 55.4165ZM89.1747 50.846V48.5715C89.1747 47.9795 88.9436 47.6835 88.484 47.6835C87.9714 47.6835 87.7164 48.0248 87.7164 48.7048V49.6888H86.5264V48.4541C86.5264 47.9262 86.7176 47.5102 87.1028 47.2008C87.488 46.8782 87.9608 46.7182 88.5239 46.7182C89.7537 46.7182 90.3673 47.3288 90.3673 48.5501V57.3418H89.2544V56.7845H89.2172C88.8586 57.2351 88.399 57.4591 87.8333 57.4591C86.885 57.4591 86.4122 56.8805 86.4122 55.7232V52.87C86.4095 51.5233 87.3312 50.846 89.1747 50.846Z" fill="white"/>
<path fill-rule="evenodd" clip-rule="evenodd" d="M91.7485 57.3444V46.8382H92.8615V47.5715H92.8987C93.2705 47.0062 93.8018 46.7235 94.4924 46.7235V47.9181C93.916 47.9181 93.5123 48.0408 93.2838 48.2861C93.0527 48.5181 92.9385 48.9101 92.9385 49.4621V57.3471H91.7485V57.3444Z" fill="white"/>
<path fill-rule="evenodd" clip-rule="evenodd" d="M98.4316 55.4165V51.8113C98.0358 51.8113 97.6958 51.8887 97.4143 52.0433C97.0424 52.2487 96.8565 52.55 96.8565 52.95V55.3392C96.8565 56.1098 97.1061 56.4965 97.6055 56.4965C98.1554 56.4965 98.4316 56.1365 98.4316 55.4165ZM98.4316 50.846V48.5715C98.4316 47.9795 98.2005 47.6835 97.741 47.6835C97.2283 47.6835 96.9733 48.0248 96.9733 48.7048V49.6888H95.7833V48.4541C95.7833 47.9262 95.9746 47.5102 96.3597 47.2008C96.7449 46.8782 97.2177 46.7182 97.7808 46.7182C99.0107 46.7182 99.6242 47.3288 99.6242 48.5501V57.3418H98.5113V56.7845H98.4741C98.1155 57.2351 97.656 57.4591 97.0902 57.4591C96.1419 57.4591 95.6691 56.8805 95.6691 55.7232V52.87C95.6665 51.5233 96.5882 50.846 98.4316 50.846Z" fill="white"/>
<path fill-rule="evenodd" clip-rule="evenodd" d="M57.3744 40.8064V26.887H59.3905C60.198 26.887 60.7478 27.0416 61.0426 27.3509C61.3508 27.6603 61.5048 28.2122 61.5048 29.0095V32.4227C61.5048 33.22 61.3508 33.772 61.0426 34.0813C60.7478 34.3907 60.198 34.5453 59.3905 34.5453H58.6414V40.8118H57.3744V40.8064ZM58.6414 33.4627H59.255C59.9084 33.4627 60.2351 33.1747 60.2351 32.5961V28.8362C60.2351 28.2576 59.9084 27.9696 59.255 27.9696H58.6414V33.4627Z" fill="white"/>
<path fill-rule="evenodd" clip-rule="evenodd" d="M65.1916 38.8998V32.2094C65.1916 31.5028 64.9287 31.1481 64.4054 31.1481C63.8795 31.1481 63.6192 31.5028 63.6192 32.2094V38.8998C63.6192 39.6065 63.8821 39.9611 64.4054 39.9611C64.9287 39.9584 65.1916 39.6065 65.1916 38.8998ZM62.4265 38.8998V32.2094C62.4265 30.8601 63.0853 30.1855 64.4054 30.1855C65.7229 30.1855 66.3843 30.8601 66.3843 32.2094V38.8998C66.3843 40.2491 65.7255 40.9237 64.4054 40.9237C63.0853 40.9237 62.4265 40.2491 62.4265 38.8998Z" fill="white"/>
<path d="M69.0883 26.8896H67.8983V40.8091H69.0883V26.8896Z" fill="white"/>
<path fill-rule="evenodd" clip-rule="evenodd" d="M70.7405 40.8064V30.3002H71.9305V40.8064H70.7405ZM70.7007 28.3536V26.8896H71.9677V28.3536H70.7007Z" fill="white"/>
<path fill-rule="evenodd" clip-rule="evenodd" d="M73.6384 30.3002V28.8922L74.8284 28.4309V30.3002H75.6731V31.2655H74.8284V39.2465C74.8284 39.6438 75.0276 39.8438 75.4234 39.8438H75.6731V40.8064H75.0967C74.1245 40.8064 73.6384 40.3771 73.6384 39.5158V31.2655H73.0461V30.3002H73.6384Z" fill="white"/>
<path fill-rule="evenodd" clip-rule="evenodd" d="M79.421 34.7746V32.2094C79.421 31.5028 79.1581 31.1481 78.6348 31.1481C78.1089 31.1481 77.8486 31.5028 77.8486 32.2094V34.7746H79.421ZM79.421 38.8998V37.4145H80.611V38.8998C80.611 40.2491 79.9523 40.9237 78.6321 40.9237C77.3147 40.9237 76.6533 40.2491 76.6533 38.8998V32.2094C76.6533 30.8601 77.312 30.1855 78.6321 30.1855C79.9496 30.1855 80.611 30.8601 80.611 32.2094V35.8519H77.8459V38.8971C77.8459 39.6038 78.1089 39.9584 78.6321 39.9584C79.1581 39.9584 79.421 39.6065 79.421 38.8998Z" fill="white"/>
<path fill-rule="evenodd" clip-rule="evenodd" d="M81.9922 40.8064V26.887H83.1822V31.0121H83.2194C83.501 30.4602 83.9499 30.1828 84.5635 30.1828C85.0124 30.1828 85.3497 30.3375 85.5808 30.6468C85.8252 30.9428 85.9447 31.3161 85.9447 31.7641V40.8064H84.7547V32.2281C84.7547 31.5854 84.505 31.2628 84.0057 31.2628C83.7507 31.2628 83.5461 31.3668 83.3921 31.5721C83.2513 31.7641 83.1822 31.9828 83.1822 32.2281V40.8064H81.9922Z" fill="white"/>
<path fill-rule="evenodd" clip-rule="evenodd" d="M87.3312 40.8064V30.3002H88.4442V31.0122H88.4814C88.8134 30.4602 89.2756 30.1829 89.8653 30.1829C90.3248 30.1829 90.6781 30.3375 90.9224 30.6468C91.1668 30.9428 91.2863 31.3162 91.2863 31.7641V40.8064H90.0964V32.2281C90.0964 31.5855 89.8467 31.2628 89.3473 31.2628C89.0923 31.2628 88.8851 31.3668 88.7337 31.5721C88.5929 31.7641 88.5212 31.9828 88.5212 32.2281V40.8064H87.3312Z" fill="white"/>
<path fill-rule="evenodd" clip-rule="evenodd" d="M92.8057 40.8064V30.3002H93.9957V40.8064H92.8057ZM92.7659 28.3536V26.8896H94.0329V28.3536H92.7659Z" fill="white"/>
<path fill-rule="evenodd" clip-rule="evenodd" d="M97.9136 33.636V32.0174C97.9136 31.4388 97.7277 31.1508 97.3558 31.1508C96.9202 31.1508 96.7024 31.4388 96.7024 32.0174V39.1691C96.7024 39.6971 96.9016 39.9584 97.2974 39.9584C97.7064 39.9584 97.911 39.6944 97.911 39.1691V37.4732H99.1009V39.1505C99.1009 40.3344 98.506 40.9237 97.316 40.9237C96.8033 40.9237 96.3757 40.7877 96.0304 40.5184C95.685 40.2491 95.5124 39.8571 95.5124 39.3425V32.2094C95.5124 30.8601 96.1711 30.1855 97.4913 30.1855C98.567 30.1855 99.1036 30.7508 99.1036 31.8814V33.636H97.9136Z" fill="white"/>
<path fill-rule="evenodd" clip-rule="evenodd" d="M103.25 38.8785V35.2733C102.854 35.2733 102.514 35.3507 102.233 35.5053C101.861 35.7106 101.675 36.0146 101.675 36.412V38.8012C101.675 39.5718 101.925 39.9585 102.424 39.9585C102.976 39.9585 103.25 39.6012 103.25 38.8785ZM103.25 34.3107V32.0361C103.25 31.4441 103.019 31.1482 102.559 31.1482C102.047 31.1482 101.792 31.4895 101.792 32.1694V33.1534H100.602V31.9188C100.602 31.3908 100.793 30.9748 101.178 30.6655C101.563 30.3429 102.036 30.1829 102.599 30.1829C103.829 30.1829 104.443 30.7935 104.443 32.0148V40.8064H103.327V40.2491H103.29C102.931 40.6998 102.472 40.9238 101.906 40.9238C100.958 40.9238 100.485 40.3451 100.485 39.1878V36.3346C100.485 34.9853 101.407 34.3107 103.25 34.3107Z" fill="white"/>
<path fill-rule="evenodd" clip-rule="evenodd" d="M60.5619 21.9965V10.3516H61.8289V22.4018C61.8289 23.7244 61.0798 24.3857 59.5817 24.3857C58.1102 24.3857 57.3744 23.7244 57.3744 22.4018V10.3516H58.6414V21.9965C58.6414 22.8711 58.9628 23.3085 59.6003 23.3085C60.2431 23.3085 60.5619 22.8711 60.5619 21.9965Z" fill="white"/>
<path fill-rule="evenodd" clip-rule="evenodd" d="M63.4996 24.2711V13.7648H64.6126V14.4794H64.6498C64.9818 13.9275 65.444 13.6501 66.0337 13.6501C66.4932 13.6501 66.8465 13.8048 67.0908 14.1141C67.3352 14.4101 67.4547 14.7834 67.4547 15.2314V24.2737H66.2648V15.6927C66.2648 15.0501 66.0151 14.7301 65.5157 14.7301C65.2607 14.7301 65.0535 14.8341 64.9021 15.0394C64.7613 15.2314 64.6896 15.4501 64.6896 15.6954V24.2737H63.4996V24.2711Z" fill="white"/>
<path fill-rule="evenodd" clip-rule="evenodd" d="M68.9741 24.2711V13.7648H70.1641V24.2711H68.9741ZM68.9343 11.8183V10.3543H70.2013V11.8183H68.9343Z" fill="white"/>
<path fill-rule="evenodd" clip-rule="evenodd" d="M72.5839 24.2711L71.3355 13.7648H72.4485L73.4472 22.6525H73.487L74.4858 13.7648H75.5987L74.3503 24.2711H72.5839Z" fill="white"/>
<path fill-rule="evenodd" clip-rule="evenodd" d="M79.3997 18.2366V15.6714C79.3997 14.9648 79.1368 14.6101 78.6135 14.6101C78.0902 14.6101 77.8273 14.9674 77.8273 15.6741V18.2393H79.3997V18.2366ZM79.3997 22.3618V20.8792H80.5897V22.3645C80.5897 23.7138 79.931 24.3884 78.6108 24.3884C77.2934 24.3884 76.632 23.7138 76.632 22.3645V15.6741C76.632 14.3248 77.2907 13.6501 78.6108 13.6501C79.9283 13.6501 80.5897 14.3248 80.5897 15.6741V19.3193H77.8273V22.3645C77.8273 23.0711 78.0902 23.4258 78.6135 23.4258C79.1368 23.4258 79.3997 23.0684 79.3997 22.3618Z" fill="white"/>
<path fill-rule="evenodd" clip-rule="evenodd" d="M81.9736 24.2711V13.7648H83.0866V14.4981H83.1264C83.4983 13.9328 84.0296 13.6501 84.7202 13.6501V14.8448C84.1438 14.8448 83.74 14.9674 83.5116 15.2101C83.2805 15.4421 83.1663 15.8341 83.1663 16.386V24.2711H81.9736Z" fill="white"/>
<path fill-rule="evenodd" clip-rule="evenodd" d="M88.33 16.8874V15.3275C88.33 14.8528 88.1255 14.6128 87.7164 14.6128C87.3074 14.6128 87.1028 14.8635 87.1028 15.3648V16.5407C87.1028 16.8234 87.2489 17.1701 87.5438 17.5807L89.0419 19.682C89.3234 20.0793 89.4642 20.4659 89.4642 20.8392V22.6125C89.4642 23.7938 88.8692 24.3858 87.6792 24.3858C86.5025 24.3858 85.9128 23.8391 85.9128 22.7485V20.9166H87.1028V22.5352C87.1028 23.1271 87.302 23.4231 87.6978 23.4231C88.083 23.4231 88.2742 23.1218 88.2742 22.5165V21.2446C88.2742 20.8712 88.1281 20.4873 87.8333 20.0873L86.4706 18.218C86.0988 17.7034 85.9128 17.234 85.9128 16.8101V15.4608C85.9128 14.8955 86.0855 14.4528 86.4308 14.1302C86.7761 13.8075 87.225 13.6475 87.7749 13.6475C88.3513 13.6475 88.7869 13.8208 89.0817 14.1675C89.3261 14.4368 89.4456 14.7648 89.4456 15.1515V16.8874H88.33Z" fill="white"/>
<path fill-rule="evenodd" clip-rule="evenodd" d="M90.9995 24.2711V13.7648H92.1895V24.2711H90.9995ZM90.9597 11.8183V10.3543H92.2267V11.8183H90.9597Z" fill="white"/>
<path fill-rule="evenodd" clip-rule="evenodd" d="M93.9001 13.7648V12.3569L95.09 11.8929V13.7621H95.9347V14.7274H95.09V22.7085C95.09 23.1058 95.2893 23.3058 95.685 23.3058H95.9347V24.2684H95.3583C94.3861 24.2684 93.9001 23.8391 93.9001 22.9778V14.7274H93.3051V13.7621H93.9001V13.7648Z" fill="white"/>
<path fill-rule="evenodd" clip-rule="evenodd" d="M99.68 22.3432V18.738C99.2842 18.738 98.9442 18.8153 98.6627 18.97C98.2908 19.1753 98.1049 19.4766 98.1049 19.8766V22.2659C98.1049 23.0365 98.3546 23.4231 98.8539 23.4231C99.4038 23.4231 99.68 23.0632 99.68 22.3432ZM99.68 17.7754V15.5008C99.68 14.9088 99.4489 14.6128 98.9894 14.6128C98.4767 14.6128 98.2217 14.9541 98.2217 15.6341V16.6181H97.0318V15.3835C97.0318 14.8555 97.223 14.4395 97.6082 14.1302C97.9933 13.8075 98.4661 13.6475 99.0292 13.6475C100.259 13.6475 100.873 14.2582 100.873 15.4794V24.2711H99.7597V23.7111H99.7225C99.3639 24.1618 98.9017 24.3858 98.3386 24.3858C97.3904 24.3858 96.9175 23.8071 96.9175 22.6498V19.7966C96.9149 18.45 97.8366 17.7754 99.68 17.7754Z" fill="white"/>
<path fill-rule="evenodd" clip-rule="evenodd" d="M102.445 13.7648V12.3569L103.635 11.8929V13.7621H104.48V14.7274H103.635V22.7085C103.635 23.1058 103.834 23.3058 104.23 23.3058H104.48V24.2684H103.903C102.931 24.2684 102.442 23.8391 102.442 22.9778V14.7274H101.847V13.7621H102.445V13.7648Z" fill="white"/>
<path fill-rule="evenodd" clip-rule="evenodd" d="M108.225 18.2366V15.6714C108.225 14.9648 107.962 14.6101 107.436 14.6101C106.91 14.6101 106.65 14.9648 106.65 15.6714V18.2366H108.225ZM108.225 22.3618V20.8792H109.415V22.3645C109.415 23.7138 108.756 24.3884 107.436 24.3884C106.119 24.3884 105.457 23.7138 105.457 22.3645V15.6741C105.457 14.3248 106.116 13.6501 107.436 13.6501C108.754 13.6501 109.415 14.3248 109.415 15.6741V19.3193H106.65V22.3645C106.65 23.0711 106.913 23.4258 107.436 23.4258C107.962 23.4231 108.225 23.0684 108.225 22.3618Z" fill="white"/>
<path fill-rule="evenodd" clip-rule="evenodd" d="M113.564 22.3432V18.738C113.166 18.738 112.828 18.8153 112.547 18.97C112.175 19.1753 111.989 19.4766 111.989 19.8766V22.2659C111.989 23.0365 112.239 23.4231 112.738 23.4231C113.288 23.4231 113.564 23.0632 113.564 22.3432ZM113.564 17.7754V15.5008C113.564 14.9088 113.333 14.6128 112.873 14.6128C112.361 14.6128 112.106 14.9541 112.106 15.6341V16.6181H110.916V15.3835C110.916 14.8555 111.107 14.4395 111.492 14.1302C111.877 13.8075 112.35 13.6475 112.913 13.6475C114.143 13.6475 114.757 14.2582 114.757 15.4794V24.2711H113.644V23.7111H113.607C113.248 24.1618 112.788 24.3858 112.223 24.3858C111.274 24.3858 110.802 23.8071 110.802 22.6498V19.7966C110.799 18.45 111.721 17.7754 113.564 17.7754Z" fill="white"/>
</svg>
