<svg width="157" height="54" viewBox="0 0 157 54" fill="none" xmlns="http://www.w3.org/2000/svg">
<path fill-rule="evenodd" clip-rule="evenodd" d="M16.5168 53.9195V8.27545H24.7394C27.429 8.27545 28.9392 9.57564 28.9392 12.1781V41.5763C28.9392 44.2804 27.4311 45.6335 24.7394 45.6335H20.6808V53.9217H17.591L16.5168 53.9195ZM24.8026 41.4767V12.4195H20.6808V41.4746H24.8026V41.4767Z" fill="#808285"/>
<path fill-rule="evenodd" clip-rule="evenodd" d="M12.3402 41.4767C12.3402 44.1809 10.9943 45.6123 8.30473 45.6123H4.03547C1.51646 45.6123 0.170602 44.2338 0 41.6313V8.27545H4.03547L4.12393 41.4767H8.30473V8.27545H12.3402V41.4767Z" fill="#808285"/>
<path d="M33.0251 54L33.0567 45.6483L37.1238 45.6441L37.1364 12.4322L41.2835 12.428V8.30297L33.0251 8.27968V0H156.971L157 53.9704L33.0251 54Z" fill="#2E3192"/>
<path fill-rule="evenodd" clip-rule="evenodd" d="M46.6207 45.5382V35.3422H45.4939V34.4846H48.7522V35.3422H47.6254V45.5382H46.6207Z" fill="white"/>
<path fill-rule="evenodd" clip-rule="evenodd" d="M49.7568 45.5382V37.195H50.7003V45.5382H49.7568ZM49.7273 35.6471V34.4846H50.7319V35.6471H49.7273Z" fill="white"/>
<path fill-rule="evenodd" clip-rule="evenodd" d="M51.9495 45.5383V37.1951H52.832V37.7626H52.8636C53.1584 37.3242 53.5228 37.104 53.9609 37.104C54.3463 37.104 54.6412 37.2776 54.8434 37.6249C55.1277 37.2776 55.4521 37.104 55.8185 37.104C56.1829 37.104 56.463 37.2268 56.6568 37.4703C56.8506 37.7054 56.9454 38.0019 56.9454 38.3576V45.5383H56.0018V38.6795C56.0018 38.1988 55.8438 37.9595 55.53 37.9595C55.1235 37.9595 54.9213 38.2136 54.9213 38.7261V45.5383H53.9777V38.6795C53.9777 38.1988 53.8198 37.9595 53.5059 37.9595C53.0994 37.9595 52.8973 38.2136 52.8973 38.7261V45.5383H51.9495Z" fill="white"/>
<path fill-rule="evenodd" clip-rule="evenodd" d="M58.1921 45.5382V37.195H59.1357V45.5382H58.1921ZM58.1626 35.6471V34.4846H59.1673V35.6471H58.1626Z" fill="white"/>
<path fill-rule="evenodd" clip-rule="evenodd" d="M62.2741 39.6747V38.4338C62.2741 38.0569 62.1119 37.8684 61.7875 37.8684C61.4632 37.8684 61.301 38.0675 61.301 38.4656V39.3994C61.301 39.6239 61.4168 39.8992 61.6506 40.2274L62.8385 41.896C63.0618 42.2137 63.1734 42.5186 63.1734 42.8151V44.2232C63.1734 45.1613 62.7016 45.6314 61.758 45.6314C60.8229 45.6314 60.3574 45.1973 60.3574 44.3291V42.8743H61.301V44.1597C61.301 44.6298 61.459 44.8649 61.7728 44.8649C62.0782 44.8649 62.2298 44.6256 62.2298 44.1449V43.1348C62.2298 42.8383 62.114 42.5334 61.8802 42.2158L60.7997 40.7314C60.5049 40.3227 60.3574 39.9521 60.3574 39.6133V38.5418C60.3574 38.0929 60.4943 37.7414 60.7681 37.4851C61.0419 37.2289 61.3979 37.1019 61.8339 37.1019C62.2909 37.1019 62.6363 37.2395 62.8701 37.5148C63.0639 37.7287 63.1587 37.9891 63.1587 38.2962V39.6747H62.2741ZM60.9956 47.6495L61.3768 45.8898H62.1687L61.5748 47.6495H60.9956Z" fill="white"/>
<path fill-rule="evenodd" clip-rule="evenodd" d="M66.4758 44.0221V38.7091C66.4758 38.1479 66.2672 37.8684 65.8523 37.8684C65.4353 37.8684 65.2289 38.1479 65.2289 38.7091V44.0221C65.2289 44.5832 65.4374 44.8649 65.8523 44.8649C66.2672 44.8649 66.4758 44.5832 66.4758 44.0221ZM64.2832 44.0221V38.7091C64.2832 37.6376 64.8055 37.1019 65.8523 37.1019C66.897 37.1019 67.4214 37.6376 67.4214 38.7091V44.0221C67.4214 45.0936 66.8991 45.6293 65.8523 45.6293C64.8055 45.6293 64.2832 45.0936 64.2832 44.0221Z" fill="white"/>
<path fill-rule="evenodd" clip-rule="evenodd" d="M70.7093 44.0072V41.1443C70.3954 41.1443 70.1258 41.2057 69.9026 41.3285C69.6077 41.4916 69.4603 41.7308 69.4603 42.0485V43.9458C69.4603 44.5578 69.6583 44.8648 70.0542 44.8648C70.4902 44.8648 70.7093 44.579 70.7093 44.0072ZM70.7093 40.3777V38.5714C70.7093 38.1013 70.526 37.8663 70.1616 37.8663C69.7551 37.8663 69.553 38.1373 69.553 38.6773V39.4587H68.6094V38.4783C68.6094 38.059 68.761 37.7286 69.0664 37.483C69.3718 37.2268 69.7467 37.0997 70.1932 37.0997C71.1684 37.0997 71.6549 37.5847 71.6549 38.5545V45.5361H70.7724V45.0935H70.743C70.4586 45.4514 70.0942 45.6293 69.6456 45.6293C68.8937 45.6293 68.5188 45.1698 68.5188 44.2508V41.985C68.5167 40.9156 69.2476 40.3777 70.7093 40.3777Z" fill="white"/>
<path fill-rule="evenodd" clip-rule="evenodd" d="M72.7502 45.5383V37.1951H73.6327V37.7774H73.6622C73.9571 37.3285 74.3783 37.104 74.9259 37.104V38.0527C74.4689 38.0527 74.1488 38.1501 73.9676 38.3449C73.7844 38.5291 73.6938 38.8404 73.6938 39.2787V45.5404H72.7502V45.5383Z" fill="white"/>
<path fill-rule="evenodd" clip-rule="evenodd" d="M78.0493 44.0072V41.1443C77.7355 41.1443 77.4659 41.2057 77.2427 41.3285C76.9478 41.4916 76.8004 41.7308 76.8004 42.0485V43.9458C76.8004 44.5578 76.9983 44.8648 77.3943 44.8648C77.8303 44.8648 78.0493 44.579 78.0493 44.0072ZM78.0493 40.3777V38.5714C78.0493 38.1013 77.8661 37.8663 77.5017 37.8663C77.0952 37.8663 76.893 38.1373 76.893 38.6773V39.4587H75.9495V38.4783C75.9495 38.059 76.1011 37.7286 76.4065 37.483C76.7119 37.2268 77.0868 37.0997 77.5333 37.0997C78.5085 37.0997 78.995 37.5847 78.995 38.5545V45.5361H78.1125V45.0935H78.083C77.7987 45.4514 77.4343 45.6293 76.9857 45.6293C76.2338 45.6293 75.8589 45.1698 75.8589 44.2508V41.985C75.8568 40.9156 76.5876 40.3777 78.0493 40.3777Z" fill="white"/>
<path fill-rule="evenodd" clip-rule="evenodd" d="M45.4939 32.4051V21.3514H47.0925C47.7328 21.3514 48.1688 21.4742 48.4026 21.7198C48.6469 21.9655 48.769 22.4038 48.769 23.037V25.7474C48.769 26.3806 48.6469 26.8189 48.4026 27.0646C48.1688 27.3102 47.7328 27.433 47.0925 27.433H46.4986V32.4093H45.4939V32.4051ZM46.4986 26.5733H46.9851C47.5032 26.5733 47.7623 26.3446 47.7623 25.8851V22.8993C47.7623 22.4398 47.5032 22.2111 46.9851 22.2111H46.4986V26.5733Z" fill="white"/>
<path fill-rule="evenodd" clip-rule="evenodd" d="M51.6925 30.891V25.5781C51.6925 25.0169 51.484 24.7353 51.0691 24.7353C50.6521 24.7353 50.4457 25.0169 50.4457 25.5781V30.891C50.4457 31.4522 50.6542 31.7338 51.0691 31.7338C51.484 31.7317 51.6925 31.4522 51.6925 30.891ZM49.5 30.891V25.5781C49.5 24.5066 50.0223 23.9708 51.0691 23.9708C52.1138 23.9708 52.6382 24.5066 52.6382 25.5781V30.891C52.6382 31.9625 52.1159 32.4983 51.0691 32.4983C50.0223 32.4983 49.5 31.9625 49.5 30.891Z" fill="white"/>
<path d="M54.7822 21.3535H53.8386V32.4072H54.7822V21.3535Z" fill="white"/>
<path fill-rule="evenodd" clip-rule="evenodd" d="M56.0924 32.4051V24.0619H57.0359V32.4051H56.0924ZM56.0608 22.5161V21.3535H57.0654V22.5161H56.0608Z" fill="white"/>
<path fill-rule="evenodd" clip-rule="evenodd" d="M58.3901 24.0619V22.9438L59.3337 22.5775V24.0619H60.0034V24.8284H59.3337V31.1663C59.3337 31.4818 59.4916 31.6406 59.8055 31.6406H60.0034V32.4051H59.5464C58.7755 32.4051 58.3901 32.0641 58.3901 31.3802V24.8284H57.9204V24.0619H58.3901Z" fill="white"/>
<path fill-rule="evenodd" clip-rule="evenodd" d="M62.9754 27.6152V25.5781C62.9754 25.0169 62.7669 24.7353 62.352 24.7353C61.935 24.7353 61.7285 25.0169 61.7285 25.5781V27.6152H62.9754ZM62.9754 30.891V29.7115H63.919V30.891C63.919 31.9625 63.3967 32.4983 62.3499 32.4983C61.3052 32.4983 60.7808 31.9625 60.7808 30.891V25.5781C60.7808 24.5066 61.3031 23.9708 62.3499 23.9708C63.3946 23.9708 63.919 24.5066 63.919 25.5781V28.4706H61.7264V30.8889C61.7264 31.4501 61.935 31.7317 62.3499 31.7317C62.7669 31.7317 62.9754 31.4522 62.9754 30.891Z" fill="white"/>
<path fill-rule="evenodd" clip-rule="evenodd" d="M65.0142 32.4051V21.3514H65.9577V24.6273H65.9872C66.2105 24.1889 66.5664 23.9687 67.053 23.9687C67.4089 23.9687 67.6764 24.0915 67.8596 24.3371C68.0534 24.5722 68.1482 24.8687 68.1482 25.2244V32.4051H67.2046V25.5929C67.2046 25.0825 67.0066 24.8263 66.6107 24.8263C66.4085 24.8263 66.2463 24.9089 66.1241 25.0719C66.0125 25.2244 65.9577 25.398 65.9577 25.5929V32.4051H65.0142Z" fill="white"/>
<path fill-rule="evenodd" clip-rule="evenodd" d="M69.2476 32.4051V24.0619H70.1301V24.6273H70.1595C70.4228 24.1889 70.7893 23.9687 71.2569 23.9687C71.6212 23.9687 71.9014 24.0915 72.0951 24.3371C72.2889 24.5722 72.3837 24.8687 72.3837 25.2244V32.4051H71.4401V25.5929C71.4401 25.0825 71.2421 24.8263 70.8462 24.8263C70.644 24.8263 70.4797 24.9089 70.3596 25.0719C70.248 25.2244 70.1911 25.398 70.1911 25.5929V32.4051H69.2476Z" fill="white"/>
<path fill-rule="evenodd" clip-rule="evenodd" d="M73.5885 32.4051V24.0619H74.5321V32.4051H73.5885ZM73.5569 22.5161V21.3535H74.5616V22.5161H73.5569Z" fill="white"/>
<path fill-rule="evenodd" clip-rule="evenodd" d="M77.6386 26.711V25.4256C77.6386 24.9661 77.4912 24.7374 77.1963 24.7374C76.8509 24.7374 76.6782 24.9661 76.6782 25.4256V31.1049C76.6782 31.5242 76.8362 31.7317 77.15 31.7317C77.4743 31.7317 77.6365 31.5221 77.6365 31.1049V29.7581H78.5801V31.0901C78.5801 32.0303 78.1083 32.4983 77.1647 32.4983C76.7582 32.4983 76.4191 32.3903 76.1453 32.1764C75.8715 31.9625 75.7346 31.6512 75.7346 31.2425V25.5781C75.7346 24.5066 76.257 23.9708 77.3037 23.9708C78.1567 23.9708 78.5822 24.4197 78.5822 25.3176V26.711H77.6386Z" fill="white"/>
<path fill-rule="evenodd" clip-rule="evenodd" d="M81.87 30.8741V28.0111C81.5562 28.0111 81.2866 28.0725 81.0634 28.1953C80.7685 28.3584 80.6211 28.5998 80.6211 28.9153V30.8127C80.6211 31.4246 80.819 31.7317 81.215 31.7317C81.6531 31.7317 81.87 31.4479 81.87 30.8741ZM81.87 27.2467V25.4404C81.87 24.9703 81.6868 24.7352 81.3224 24.7352C80.9159 24.7352 80.7137 25.0063 80.7137 25.5463V26.3277H79.7702V25.3472C79.7702 24.9279 79.9218 24.5976 80.2272 24.352C80.5326 24.0957 80.9075 23.9687 81.354 23.9687C82.3292 23.9687 82.8157 24.4536 82.8157 25.4235V32.4051H81.9311V31.9625H81.9016C81.6173 32.3204 81.2529 32.4982 80.8043 32.4982C80.0524 32.4982 79.6775 32.0387 79.6775 31.1197V28.8539C79.6775 27.7824 80.4083 27.2467 81.87 27.2467Z" fill="white"/>
<path fill-rule="evenodd" clip-rule="evenodd" d="M48.0213 17.4678V8.2204H49.026V17.7897C49.026 18.84 48.432 19.3651 47.2441 19.3651C46.0773 19.3651 45.4939 18.84 45.4939 17.7897V8.2204H46.4986V17.4678C46.4986 18.1624 46.7534 18.5096 47.2589 18.5096C47.7686 18.5096 48.0213 18.1624 48.0213 17.4678Z" fill="white"/>
<path fill-rule="evenodd" clip-rule="evenodd" d="M50.3508 19.2741V10.9309H51.2333V11.4984H51.2628C51.5261 11.06 51.8926 10.8398 52.3601 10.8398C52.7245 10.8398 53.0046 10.9626 53.1984 11.2083C53.3922 11.4433 53.487 11.7398 53.487 12.0955V19.2762H52.5434V12.4619C52.5434 11.9515 52.3454 11.6974 51.9494 11.6974C51.7472 11.6974 51.583 11.78 51.4629 11.9431C51.3513 12.0955 51.2944 12.2692 51.2944 12.464V19.2762H50.3508V19.2741Z" fill="white"/>
<path fill-rule="evenodd" clip-rule="evenodd" d="M54.6918 19.2741V10.9309H55.6353V19.2741H54.6918ZM54.6602 9.38505V8.2225H55.6648V9.38505H54.6602Z" fill="white"/>
<path fill-rule="evenodd" clip-rule="evenodd" d="M57.5539 19.2741L56.564 10.9309H57.4465L58.2384 17.9887H58.27L59.0619 10.9309H59.9444L58.9545 19.2741H57.5539Z" fill="white"/>
<path fill-rule="evenodd" clip-rule="evenodd" d="M62.9586 14.482V12.4449C62.9586 11.8838 62.7501 11.6021 62.3351 11.6021C61.9202 11.6021 61.7117 11.8859 61.7117 12.447V14.4841H62.9586V14.482ZM62.9586 17.7579V16.5805H63.9021V17.76C63.9021 18.8315 63.3798 19.3672 62.333 19.3672C61.2884 19.3672 60.7639 18.8315 60.7639 17.76V12.447C60.7639 11.3756 61.2863 10.8398 62.333 10.8398C63.3777 10.8398 63.9021 11.3756 63.9021 12.447V15.3418H61.7117V17.76C61.7117 18.3212 61.9202 18.6028 62.3351 18.6028C62.7501 18.6028 62.9586 18.319 62.9586 17.7579Z" fill="white"/>
<path fill-rule="evenodd" clip-rule="evenodd" d="M64.9993 19.2741V10.9309H65.8818V11.5132H65.9134C66.2082 11.0643 66.6295 10.8398 67.1771 10.8398V11.7885C66.72 11.7885 66.3999 11.8859 66.2188 12.0786C66.0355 12.2628 65.945 12.5741 65.945 13.0124V19.2741H64.9993Z" fill="white"/>
<path fill-rule="evenodd" clip-rule="evenodd" d="M70.0394 13.4105V12.1718C70.0394 11.7948 69.8773 11.6043 69.5529 11.6043C69.2286 11.6043 69.0664 11.8033 69.0664 12.2014V13.1353C69.0664 13.3597 69.1822 13.635 69.416 13.9611L70.6039 15.6298C70.8272 15.9453 70.9388 16.2523 70.9388 16.5488V17.957C70.9388 18.895 70.467 19.3651 69.5234 19.3651C68.5904 19.3651 68.1228 18.931 68.1228 18.065V16.6102H69.0664V17.8955C69.0664 18.3656 69.2243 18.6007 69.5382 18.6007C69.8436 18.6007 69.9952 18.3614 69.9952 17.8807V16.8706C69.9952 16.5742 69.8794 16.2693 69.6456 15.9516L68.5651 14.4672C68.2702 14.0585 68.1228 13.6858 68.1228 13.3491V12.2777C68.1228 11.8287 68.2597 11.4772 68.5335 11.221C68.8073 10.9648 69.1633 10.8377 69.5992 10.8377C70.0563 10.8377 70.4017 10.9753 70.6355 11.2506C70.8293 11.4645 70.924 11.725 70.924 12.032V13.4105H70.0394Z" fill="white"/>
<path fill-rule="evenodd" clip-rule="evenodd" d="M72.1561 19.2741V10.9309H73.0997V19.2741H72.1561ZM72.1245 9.38505V8.2225H73.1292V9.38505H72.1245Z" fill="white"/>
<path fill-rule="evenodd" clip-rule="evenodd" d="M74.4562 10.9309V9.81279L75.3997 9.44434V10.9287H76.0695V11.6953H75.3997V18.0332C75.3997 18.3487 75.5577 18.5075 75.8715 18.5075H76.0695V19.272H75.6125C74.8416 19.272 74.4562 18.931 74.4562 18.247V11.6953H73.9844V10.9287H74.4562V10.9309Z" fill="white"/>
<path fill-rule="evenodd" clip-rule="evenodd" d="M79.0393 17.7431V14.8801C78.7255 14.8801 78.4559 14.9415 78.2326 15.0644C77.9378 15.2274 77.7903 15.4667 77.7903 15.7843V17.6817C77.7903 18.2936 77.9883 18.6007 78.3843 18.6007C78.8203 18.6007 79.0393 18.3148 79.0393 17.7431ZM79.0393 14.1157V12.3094C79.0393 11.8393 78.8561 11.6043 78.4917 11.6043C78.0852 11.6043 77.883 11.8753 77.883 12.4153V13.1967H76.9394V12.2162C76.9394 11.797 77.0911 11.4666 77.3965 11.221C77.7019 10.9648 78.0768 10.8377 78.5233 10.8377C79.4985 10.8377 79.985 11.3226 79.985 12.2925V19.2741H79.1025V18.8294H79.073C78.7887 19.1873 78.4222 19.3651 77.9757 19.3651C77.2238 19.3651 76.8489 18.9056 76.8489 17.9866V15.7208C76.8468 14.6514 77.5776 14.1157 79.0393 14.1157Z" fill="white"/>
<path fill-rule="evenodd" clip-rule="evenodd" d="M81.2317 10.9309V9.81279L82.1753 9.44434V10.9287H82.8451V11.6953H82.1753V18.0332C82.1753 18.3487 82.3332 18.5075 82.6471 18.5075H82.8451V19.272H82.388C81.6171 19.272 81.2296 18.931 81.2296 18.247V11.6953H80.7578V10.9287H81.2317V10.9309Z" fill="white"/>
<path fill-rule="evenodd" clip-rule="evenodd" d="M85.815 14.482V12.4449C85.815 11.8838 85.6065 11.6021 85.1895 11.6021C84.7724 11.6021 84.566 11.8838 84.566 12.4449V14.482H85.815ZM85.815 17.7579V16.5805H86.7586V17.76C86.7586 18.8315 86.2362 19.3672 85.1895 19.3672C84.1448 19.3672 83.6204 18.8315 83.6204 17.76V12.447C83.6204 11.3756 84.1427 10.8398 85.1895 10.8398C86.2341 10.8398 86.7586 11.3756 86.7586 12.447V15.3418H84.566V17.76C84.566 18.3212 84.7745 18.6028 85.1895 18.6028C85.6065 18.6007 85.815 18.319 85.815 17.7579Z" fill="white"/>
<path fill-rule="evenodd" clip-rule="evenodd" d="M90.0483 17.7431V14.8801C89.7324 14.8801 89.4649 14.9415 89.2417 15.0644C88.9468 15.2274 88.7994 15.4667 88.7994 15.7843V17.6817C88.7994 18.2936 88.9974 18.6007 89.3933 18.6007C89.8293 18.6007 90.0483 18.3148 90.0483 17.7431ZM90.0483 14.1157V12.3094C90.0483 11.8393 89.8651 11.6043 89.5007 11.6043C89.0942 11.6043 88.892 11.8753 88.892 12.4153V13.1967H87.9485V12.2162C87.9485 11.797 88.1001 11.4666 88.4055 11.221C88.7109 10.9648 89.0858 10.8377 89.5323 10.8377C90.5075 10.8377 90.994 11.3226 90.994 12.2925V19.2741H90.1115V18.8294H90.082C89.7977 19.1873 89.4333 19.3651 88.9847 19.3651C88.2328 19.3651 87.8579 18.9056 87.8579 17.9866V15.7208C87.8558 14.6514 88.5867 14.1157 90.0483 14.1157Z" fill="white"/>
</svg>
