<svg width="223" height="223" viewBox="0 0 223 223" fill="none" xmlns="http://www.w3.org/2000/svg">
<g clip-path="url(#clip0_35_4108)">
<rect x="21" y="42" width="181" height="181" rx="20" fill="#F5F5F5"/>
<path d="M47.0748 8.47791C46.9106 3.22223 53.7549 1.06577 56.6331 5.46635L65.7104 19.3449C67.8728 22.6511 72.7856 22.4376 74.653 18.9563L82.4922 4.34265C84.9778 -0.291005 91.9834 1.2636 92.2757 6.51371L93.1976 23.0716C93.4172 27.016 97.7785 29.2875 101.136 27.2063L115.232 18.4701C119.702 15.7001 124.991 20.5492 122.619 25.2421L115.139 40.0425C113.357 43.5683 115.998 47.7161 119.947 47.5927L136.522 47.0748C141.778 46.9106 143.934 53.7549 139.534 56.6331L125.655 65.7104C122.349 67.8728 122.562 72.7856 126.044 74.653L140.657 82.4922C145.291 84.9778 143.736 91.9834 138.486 92.2757L121.928 93.1976C117.984 93.4172 115.713 97.7785 117.794 101.136L126.53 115.232C129.3 119.702 124.451 124.991 119.758 122.619L104.957 115.139C101.432 113.357 97.2839 115.998 97.4073 119.947L97.9252 136.522C98.0894 141.778 91.2451 143.934 88.3669 139.534L79.2896 125.655C77.1272 122.349 72.2144 122.562 70.347 126.044L62.5078 140.657C60.0222 145.291 53.0166 143.736 52.7243 138.486L51.8024 121.928C51.5828 117.984 47.2215 115.713 43.8636 117.794L29.7678 126.53C25.2984 129.3 20.0087 124.451 22.3806 119.758L29.8611 104.957C31.6432 101.432 29.0019 97.2839 25.0533 97.4073L8.4779 97.9252C3.22222 98.0894 1.06576 91.2451 5.46634 88.3669L19.3449 79.2896C22.6511 77.1272 22.4376 72.2144 18.9563 70.347L4.34265 62.5078C-0.291013 60.0222 1.26359 53.0166 6.5137 52.7243L23.0716 51.8024C27.016 51.5828 29.2875 47.2215 27.2063 43.8636L18.4701 29.7678C15.7 25.2984 20.5492 20.0087 25.242 22.3806L40.0425 29.8611C43.5683 31.6432 47.7161 29.0019 47.5927 25.0533L47.0748 8.47791Z" fill="#505050"/>
<path d="M47.0748 8.47791C46.9106 3.22223 53.7549 1.06577 56.6331 5.46635L65.7104 19.3449C67.8728 22.6511 72.7856 22.4376 74.653 18.9563L82.4922 4.34265C84.9778 -0.291005 91.9834 1.2636 92.2757 6.51371L93.1976 23.0716C93.4172 27.016 97.7785 29.2875 101.136 27.2063L115.232 18.4701C119.702 15.7001 124.991 20.5492 122.619 25.2421L115.139 40.0425C113.357 43.5683 115.998 47.7161 119.947 47.5927L136.522 47.0748C141.778 46.9106 143.934 53.7549 139.534 56.6331L125.655 65.7104C122.349 67.8728 122.562 72.7856 126.044 74.653L140.657 82.4922C145.291 84.9778 143.736 91.9834 138.486 92.2757L121.928 93.1976C117.984 93.4172 115.713 97.7785 117.794 101.136L126.53 115.232C129.3 119.702 124.451 124.991 119.758 122.619L104.957 115.139C101.432 113.357 97.2839 115.998 97.4073 119.947L97.9252 136.522C98.0894 141.778 91.2451 143.934 88.3669 139.534L79.2896 125.655C77.1272 122.349 72.2144 122.562 70.347 126.044L62.5078 140.657C60.0222 145.291 53.0166 143.736 52.7243 138.486L51.8024 121.928C51.5828 117.984 47.2215 115.713 43.8636 117.794L29.7678 126.53C25.2984 129.3 20.0087 124.451 22.3806 119.758L29.8611 104.957C31.6432 101.432 29.0019 97.2839 25.0533 97.4073L8.4779 97.9252C3.22222 98.0894 1.06576 91.2451 5.46634 88.3669L19.3449 79.2896C22.6511 77.1272 22.4376 72.2144 18.9563 70.347L4.34265 62.5078C-0.291013 60.0222 1.26359 53.0166 6.5137 52.7243L23.0716 51.8024C27.016 51.5828 29.2875 47.2215 27.2063 43.8636L18.4701 29.7678C15.7 25.2984 20.5492 20.0087 25.242 22.3806L40.0425 29.8611C43.5683 31.6432 47.7161 29.0019 47.5927 25.0533L47.0748 8.47791Z" fill="url(#paint0_radial_35_4108)" fill-opacity="0.2"/>
<path d="M181.333 121.668C183.191 118.554 187.969 119.844 188.006 123.471L188.121 134.907C188.149 137.631 191.082 139.333 193.461 138.005L203.446 132.428C206.612 130.66 210.104 134.167 208.323 137.325L202.705 147.287C201.367 149.661 203.056 152.601 205.78 152.64L217.216 152.803C220.842 152.855 222.113 157.638 218.991 159.483L209.145 165.301C206.799 166.687 206.792 170.078 209.132 171.474L218.954 177.333C222.068 179.191 220.777 183.969 217.151 184.006L205.715 184.121C202.99 184.149 201.289 187.082 202.617 189.461L208.193 199.446C209.962 202.612 206.455 206.104 203.296 204.323L193.334 198.705C190.961 197.367 188.021 199.056 187.982 201.78L187.818 213.216C187.767 216.842 182.984 218.113 181.139 214.991L175.321 205.145C173.935 202.799 170.543 202.792 169.148 205.132L163.288 214.954C161.43 218.068 156.653 216.777 156.616 213.151L156.501 201.715C156.473 198.99 153.54 197.289 151.161 198.617L141.176 204.193C138.01 205.962 134.517 202.455 136.299 199.296L141.917 189.334C143.255 186.961 141.566 184.021 138.841 183.982L127.406 183.818C123.78 183.767 122.509 178.984 125.631 177.139L135.477 171.321C137.823 169.935 137.83 166.543 135.49 165.147L125.668 159.288C122.554 157.43 123.844 152.653 127.471 152.616L138.907 152.5C141.631 152.473 143.333 149.54 142.005 147.161L136.428 137.176C134.66 134.009 138.167 130.517 141.325 132.299L151.287 137.917C153.661 139.255 156.601 137.566 156.64 134.841L156.803 123.406C156.855 119.78 161.638 118.509 163.483 121.631L169.301 131.477C170.687 133.823 174.078 133.83 175.474 131.49L181.333 121.668Z" fill="#C8C8C8"/>
<path d="M181.333 121.668C183.191 118.554 187.969 119.844 188.006 123.471L188.121 134.907C188.149 137.631 191.082 139.333 193.461 138.005L203.446 132.428C206.612 130.66 210.104 134.167 208.323 137.325L202.705 147.287C201.367 149.661 203.056 152.601 205.78 152.64L217.216 152.803C220.842 152.855 222.113 157.638 218.991 159.483L209.145 165.301C206.799 166.687 206.792 170.078 209.132 171.474L218.954 177.333C222.068 179.191 220.777 183.969 217.151 184.006L205.715 184.121C202.99 184.149 201.289 187.082 202.617 189.461L208.193 199.446C209.962 202.612 206.455 206.104 203.296 204.323L193.334 198.705C190.961 197.367 188.021 199.056 187.982 201.78L187.818 213.216C187.767 216.842 182.984 218.113 181.139 214.991L175.321 205.145C173.935 202.799 170.543 202.792 169.148 205.132L163.288 214.954C161.43 218.068 156.653 216.777 156.616 213.151L156.501 201.715C156.473 198.99 153.54 197.289 151.161 198.617L141.176 204.193C138.01 205.962 134.517 202.455 136.299 199.296L141.917 189.334C143.255 186.961 141.566 184.021 138.841 183.982L127.406 183.818C123.78 183.767 122.509 178.984 125.631 177.139L135.477 171.321C137.823 169.935 137.83 166.543 135.49 165.147L125.668 159.288C122.554 157.43 123.844 152.653 127.471 152.616L138.907 152.5C141.631 152.473 143.333 149.54 142.005 147.161L136.428 137.176C134.66 134.009 138.167 130.517 141.325 132.299L151.287 137.917C153.661 139.255 156.601 137.566 156.64 134.841L156.803 123.406C156.855 119.78 161.638 118.509 163.483 121.631L169.301 131.477C170.687 133.823 174.078 133.83 175.474 131.49L181.333 121.668Z" fill="url(#paint1_radial_35_4108)" fill-opacity="0.2"/>
<path d="M128 220.85C128 238.441 107.405 225.255 82 225.255C56.5949 225.255 36 238.441 36 220.85C36 203.26 56.5949 189 82 189C107.405 189 128 203.26 128 220.85Z" fill="#C8C8C8"/>
<path d="M128 220.85C128 238.441 107.405 225.255 82 225.255C56.5949 225.255 36 238.441 36 220.85C36 203.26 56.5949 189 82 189C107.405 189 128 203.26 128 220.85Z" fill="url(#paint2_linear_35_4108)" fill-opacity="0.4"/>
<ellipse cx="81.5" cy="176" rx="21.5" ry="21" fill="#C8C8C8"/>
<ellipse cx="81.5" cy="176" rx="21.5" ry="21" fill="url(#paint3_radial_35_4108)" fill-opacity="0.4"/>
</g>
<defs>
<radialGradient id="paint0_radial_35_4108" cx="0" cy="0" r="1" gradientUnits="userSpaceOnUse" gradientTransform="translate(87.9762 121.62) rotate(-107.488) scale(65.5)">
<stop stop-color="white"/>
<stop offset="1" stop-color="white" stop-opacity="0"/>
</radialGradient>
<radialGradient id="paint1_radial_35_4108" cx="0" cy="0" r="1" gradientUnits="userSpaceOnUse" gradientTransform="translate(163.047 202.599) rotate(-74.8805) scale(45.1724)">
<stop stop-color="white"/>
<stop offset="1" stop-color="white" stop-opacity="0"/>
</radialGradient>
<linearGradient id="paint2_linear_35_4108" x1="82" y1="189" x2="82" y2="230" gradientUnits="userSpaceOnUse">
<stop stop-color="#5D5FEF" stop-opacity="0"/>
<stop offset="1" stop-color="#5D5FEF"/>
</linearGradient>
<radialGradient id="paint3_radial_35_4108" cx="0" cy="0" r="1" gradientUnits="userSpaceOnUse" gradientTransform="translate(81.5 157.297) rotate(90) scale(39.7031 40.0231)">
<stop stop-color="#ECECFF"/>
<stop offset="0.450641" stop-color="#5D5FEF" stop-opacity="0"/>
<stop offset="1" stop-color="#5D5FEF" stop-opacity="0.7"/>
</radialGradient>
<clipPath id="clip0_35_4108">
<rect width="223" height="223" fill="white"/>
</clipPath>
</defs>
</svg>
