<svg width="223" height="223" viewBox="0 0 223 223" fill="none" xmlns="http://www.w3.org/2000/svg">
<g clip-path="url(#clip0_35_1953)">
<rect x="21" y="42" width="181" height="181" rx="20" fill="#C7E747"/>
<path d="M17.977 38.0909C16.1624 35.3807 19.053 31.9958 22.0139 33.3638L31.352 37.6783C33.5765 38.7061 36.0902 36.9783 35.9276 34.5332L35.245 24.2693C35.0286 21.0148 39.2244 19.5287 41.1046 22.1939L47.0344 30.5994C48.447 32.6018 51.4878 32.3623 52.5695 30.1635L57.1104 20.9334C58.5502 18.0067 62.9269 18.8176 63.2226 22.0658L64.1552 32.3101C64.3774 34.7505 67.1305 36.0635 69.1667 34.7001L77.7143 28.9771C80.4246 27.1624 83.8094 30.053 82.4414 33.0139L78.1269 42.352C77.0991 44.5766 78.8269 47.0902 81.272 46.9276L91.536 46.2451C94.7904 46.0286 96.2765 50.2245 93.6113 52.1047L85.2058 58.0345C83.2035 59.447 83.443 62.4878 85.6418 63.5696L94.8719 68.1104C97.7985 69.5502 96.9876 73.927 93.7394 74.2227L83.4951 75.1553C81.0547 75.3774 79.7417 78.1306 81.1051 80.1668L86.8282 88.7144C88.6428 91.4246 85.7522 94.8095 82.7913 93.4415L73.4532 89.127C71.2287 88.0992 68.715 89.827 68.8776 92.2721L69.5602 102.536C69.7766 105.79 65.5808 107.277 63.7006 104.611L57.7708 96.2059C56.3582 94.2035 53.3174 94.443 52.2357 96.6418L47.6948 105.872C46.255 108.799 41.8783 107.988 41.5826 104.739L40.65 94.4952C40.4278 92.0548 37.6746 90.7418 35.6384 92.1051L27.0909 97.8282C24.3806 99.6429 20.9957 96.7522 22.3638 93.7913L26.6782 84.4532C27.706 82.2287 25.9782 79.7151 23.5332 79.8777L13.2692 80.5602C10.0147 80.7766 8.52867 76.5808 11.1939 74.7006L19.5993 68.7708C21.6017 67.3582 21.3622 64.3174 19.1634 63.2357L9.9333 58.6948C7.00664 57.255 7.81758 52.8783 11.0658 52.5826L21.3101 51.65C23.7504 51.4278 25.0634 48.6747 23.7001 46.6385L17.977 38.0909Z" fill="#E78147"/>
<path d="M17.977 38.0909C16.1624 35.3807 19.053 31.9958 22.0139 33.3638L31.352 37.6783C33.5765 38.7061 36.0902 36.9783 35.9276 34.5332L35.245 24.2693C35.0286 21.0148 39.2244 19.5287 41.1046 22.1939L47.0344 30.5994C48.447 32.6018 51.4878 32.3623 52.5695 30.1635L57.1104 20.9334C58.5502 18.0067 62.9269 18.8176 63.2226 22.0658L64.1552 32.3101C64.3774 34.7505 67.1305 36.0635 69.1667 34.7001L77.7143 28.9771C80.4246 27.1624 83.8094 30.053 82.4414 33.0139L78.1269 42.352C77.0991 44.5766 78.8269 47.0902 81.272 46.9276L91.536 46.2451C94.7904 46.0286 96.2765 50.2245 93.6113 52.1047L85.2058 58.0345C83.2035 59.447 83.443 62.4878 85.6418 63.5696L94.8719 68.1104C97.7985 69.5502 96.9876 73.927 93.7394 74.2227L83.4951 75.1553C81.0547 75.3774 79.7417 78.1306 81.1051 80.1668L86.8282 88.7144C88.6428 91.4246 85.7522 94.8095 82.7913 93.4415L73.4532 89.127C71.2287 88.0992 68.715 89.827 68.8776 92.2721L69.5602 102.536C69.7766 105.79 65.5808 107.277 63.7006 104.611L57.7708 96.2059C56.3582 94.2035 53.3174 94.443 52.2357 96.6418L47.6948 105.872C46.255 108.799 41.8783 107.988 41.5826 104.739L40.65 94.4952C40.4278 92.0548 37.6746 90.7418 35.6384 92.1051L27.0909 97.8282C24.3806 99.6429 20.9957 96.7522 22.3638 93.7913L26.6782 84.4532C27.706 82.2287 25.9782 79.7151 23.5332 79.8777L13.2692 80.5602C10.0147 80.7766 8.52867 76.5808 11.1939 74.7006L19.5993 68.7708C21.6017 67.3582 21.3622 64.3174 19.1634 63.2357L9.9333 58.6948C7.00664 57.255 7.81758 52.8783 11.0658 52.5826L21.3101 51.65C23.7504 51.4278 25.0634 48.6747 23.7001 46.6385L17.977 38.0909Z" fill="url(#paint0_radial_35_1953)" fill-opacity="0.2"/>
<path d="M218.378 156.439C222.497 158.365 221.488 164.488 216.969 164.99L202.716 166.574C199.321 166.951 197.567 170.825 199.524 173.625L207.737 185.38C210.342 189.107 206.407 193.905 202.242 192.081L189.107 186.326C185.978 184.955 182.522 187.433 182.816 190.836L184.052 205.123C184.444 209.653 178.637 211.841 175.942 208.178L167.445 196.627C165.42 193.875 161.189 194.293 159.742 197.387L153.668 210.378C151.742 214.497 145.62 213.488 145.118 208.969L143.534 194.716C143.157 191.321 139.283 189.567 136.483 191.524L124.728 199.738C121 202.342 116.202 198.407 118.027 194.242L123.782 181.107C125.153 177.978 122.675 174.522 119.272 174.816L104.985 176.052C100.454 176.444 98.267 170.637 101.93 167.942L113.481 159.445C116.233 157.42 115.815 153.189 112.72 151.742L99.7294 145.668C95.6103 143.743 96.6194 137.62 101.139 137.118L115.391 135.534C118.787 135.157 120.54 131.283 118.584 128.483L110.37 116.728C107.766 113 111.701 108.202 115.866 110.027L129.001 115.782C132.13 117.153 135.586 114.675 135.291 111.272L134.056 96.9846C133.664 92.4545 139.471 90.267 142.165 93.9297L150.663 105.481C152.687 108.233 156.919 107.815 158.366 104.72L164.439 91.7294C166.365 87.6104 172.488 88.6194 172.99 93.1386L174.574 107.391C174.951 110.787 178.825 112.54 181.625 110.584L193.38 102.37C197.107 99.7658 201.905 103.701 200.08 107.866L194.326 121.001C192.955 124.13 195.432 127.586 198.836 127.291L213.123 126.056C217.653 125.664 219.841 131.471 216.178 134.165L204.627 142.663C201.875 144.687 202.293 148.919 205.387 150.366L218.378 156.439Z" fill="#5D5FEF"/>
<path d="M218.378 156.439C222.497 158.365 221.488 164.488 216.969 164.99L202.716 166.574C199.321 166.951 197.567 170.825 199.524 173.625L207.737 185.38C210.342 189.107 206.407 193.905 202.242 192.081L189.107 186.326C185.978 184.955 182.522 187.433 182.816 190.836L184.052 205.123C184.444 209.653 178.637 211.841 175.942 208.178L167.445 196.627C165.42 193.875 161.189 194.293 159.742 197.387L153.668 210.378C151.742 214.497 145.62 213.488 145.118 208.969L143.534 194.716C143.157 191.321 139.283 189.567 136.483 191.524L124.728 199.738C121 202.342 116.202 198.407 118.027 194.242L123.782 181.107C125.153 177.978 122.675 174.522 119.272 174.816L104.985 176.052C100.454 176.444 98.267 170.637 101.93 167.942L113.481 159.445C116.233 157.42 115.815 153.189 112.72 151.742L99.7294 145.668C95.6103 143.743 96.6194 137.62 101.139 137.118L115.391 135.534C118.787 135.157 120.54 131.283 118.584 128.483L110.37 116.728C107.766 113 111.701 108.202 115.866 110.027L129.001 115.782C132.13 117.153 135.586 114.675 135.291 111.272L134.056 96.9846C133.664 92.4545 139.471 90.267 142.165 93.9297L150.663 105.481C152.687 108.233 156.919 107.815 158.366 104.72L164.439 91.7294C166.365 87.6104 172.488 88.6194 172.99 93.1386L174.574 107.391C174.951 110.787 178.825 112.54 181.625 110.584L193.38 102.37C197.107 99.7658 201.905 103.701 200.08 107.866L194.326 121.001C192.955 124.13 195.432 127.586 198.836 127.291L213.123 126.056C217.653 125.664 219.841 131.471 216.178 134.165L204.627 142.663C201.875 144.687 202.293 148.919 205.387 150.366L218.378 156.439Z" fill="url(#paint1_radial_35_1953)" fill-opacity="0.2"/>
<path d="M155 218.172C155 240.911 128.361 223.867 95.5 223.867C62.6391 223.867 36 240.911 36 218.172C36 195.434 62.6391 177 95.5 177C128.361 177 155 195.434 155 218.172Z" fill="#242424"/>
<path d="M155 218.172C155 240.911 128.361 223.867 95.5 223.867C62.6391 223.867 36 240.911 36 218.172C36 195.434 62.6391 177 95.5 177C128.361 177 155 195.434 155 218.172Z" fill="url(#paint2_linear_35_1953)" fill-opacity="0.4"/>
<ellipse cx="95" cy="160" rx="28" ry="27" fill="#242424"/>
<ellipse cx="95" cy="160" rx="28" ry="27" fill="url(#paint3_radial_35_1953)" fill-opacity="0.4"/>
</g>
<defs>
<radialGradient id="paint0_radial_35_1953" cx="0" cy="0" r="1" gradientUnits="userSpaceOnUse" gradientTransform="translate(76.6949 84.148) rotate(-139.503) scale(40.6292)">
<stop stop-color="white"/>
<stop offset="1" stop-color="white" stop-opacity="0"/>
</radialGradient>
<radialGradient id="paint1_radial_35_1953" cx="0" cy="0" r="1" gradientUnits="userSpaceOnUse" gradientTransform="translate(115.112 143.812) rotate(9.35853) scale(56.6404)">
<stop stop-color="white"/>
<stop offset="1" stop-color="white" stop-opacity="0"/>
</radialGradient>
<linearGradient id="paint2_linear_35_1953" x1="95.5" y1="177" x2="95.5" y2="230" gradientUnits="userSpaceOnUse">
<stop stop-color="#5D5FEF" stop-opacity="0"/>
<stop offset="1" stop-color="#5D5FEF"/>
</linearGradient>
<radialGradient id="paint3_radial_35_1953" cx="0" cy="0" r="1" gradientUnits="userSpaceOnUse" gradientTransform="translate(95 135.953) rotate(90) scale(51.0469 52.1231)">
<stop stop-color="#ECECFF"/>
<stop offset="0.450641" stop-color="#5D5FEF" stop-opacity="0"/>
<stop offset="1" stop-color="#5D5FEF" stop-opacity="0.7"/>
</radialGradient>
<clipPath id="clip0_35_1953">
<rect width="223" height="223" fill="white"/>
</clipPath>
</defs>
</svg>
