<svg width="223" height="223" viewBox="0 0 223 223" fill="none" xmlns="http://www.w3.org/2000/svg">
<g clip-path="url(#clip0_35_4104)">
<rect x="21" y="43" width="181" height="181" rx="20" fill="#C8C8C8"/>
<rect x="21" y="43" width="181" height="181" rx="20" fill="white" fill-opacity="0.75"/>
<path d="M106.489 3.79658C107.912 -1.26552 115.088 -1.26553 116.511 3.79657L120.998 19.7615C122.067 23.5647 126.817 24.8374 129.644 22.0782L141.512 10.4957C145.275 6.82319 151.49 10.4112 150.191 15.5065L146.095 31.576C145.119 35.4041 148.596 38.8812 152.424 37.9054L168.494 33.8089C173.589 32.5099 177.177 38.7245 173.504 42.4877L161.922 54.3561C159.163 57.1834 160.435 61.9332 164.239 63.0021L180.203 67.4893C185.266 68.912 185.266 76.088 180.203 77.5107L164.239 81.9979C160.435 83.0668 159.163 87.8166 161.922 90.6439L173.504 102.512C177.177 106.275 173.589 112.49 168.494 111.191L152.424 107.095C148.596 106.119 145.119 109.596 146.095 113.424L150.191 129.494C151.49 134.589 145.275 138.177 141.512 134.504L129.644 122.922C126.817 120.163 122.067 121.435 120.998 125.239L116.511 141.203C115.088 146.266 107.912 146.266 106.489 141.203L102.002 125.239C100.933 121.435 96.1834 120.163 93.3561 122.922L81.4877 134.504C77.7245 138.177 71.5099 134.589 72.8089 129.494L76.9054 113.424C77.8812 109.596 74.4041 106.119 70.576 107.095L54.5065 111.191C49.4112 112.49 45.8232 106.275 49.4957 102.512L61.0782 90.6439C63.8374 87.8166 62.5647 83.0668 58.7615 81.9979L42.7966 77.5107C37.7345 76.088 37.7345 68.912 42.7966 67.4893L58.7615 63.0021C62.5647 61.9332 63.8374 57.1834 61.0782 54.3561L49.4957 42.4877C45.8232 38.7245 49.4112 32.5099 54.5065 33.8089L70.576 37.9054C74.4041 38.8812 77.8812 35.4041 76.9054 31.576L72.8089 15.5065C71.5099 10.4112 77.7245 6.82318 81.4877 10.4957L93.3561 22.0782C96.1834 24.8374 100.933 23.5647 102.002 19.7615L106.489 3.79658Z" fill="#505050"/>
<path d="M106.489 3.79658C107.912 -1.26552 115.088 -1.26553 116.511 3.79657L120.998 19.7615C122.067 23.5647 126.817 24.8374 129.644 22.0782L141.512 10.4957C145.275 6.82319 151.49 10.4112 150.191 15.5065L146.095 31.576C145.119 35.4041 148.596 38.8812 152.424 37.9054L168.494 33.8089C173.589 32.5099 177.177 38.7245 173.504 42.4877L161.922 54.3561C159.163 57.1834 160.435 61.9332 164.239 63.0021L180.203 67.4893C185.266 68.912 185.266 76.088 180.203 77.5107L164.239 81.9979C160.435 83.0668 159.163 87.8166 161.922 90.6439L173.504 102.512C177.177 106.275 173.589 112.49 168.494 111.191L152.424 107.095C148.596 106.119 145.119 109.596 146.095 113.424L150.191 129.494C151.49 134.589 145.275 138.177 141.512 134.504L129.644 122.922C126.817 120.163 122.067 121.435 120.998 125.239L116.511 141.203C115.088 146.266 107.912 146.266 106.489 141.203L102.002 125.239C100.933 121.435 96.1834 120.163 93.3561 122.922L81.4877 134.504C77.7245 138.177 71.5099 134.589 72.8089 129.494L76.9054 113.424C77.8812 109.596 74.4041 106.119 70.576 107.095L54.5065 111.191C49.4112 112.49 45.8232 106.275 49.4957 102.512L61.0782 90.6439C63.8374 87.8166 62.5647 83.0668 58.7615 81.9979L42.7966 77.5107C37.7345 76.088 37.7345 68.912 42.7966 67.4893L58.7615 63.0021C62.5647 61.9332 63.8374 57.1834 61.0782 54.3561L49.4957 42.4877C45.8232 38.7245 49.4112 32.5099 54.5065 33.8089L70.576 37.9054C74.4041 38.8812 77.8812 35.4041 76.9054 31.576L72.8089 15.5065C71.5099 10.4112 77.7245 6.82318 81.4877 10.4957L93.3561 22.0782C96.1834 24.8374 100.933 23.5647 102.002 19.7615L106.489 3.79658Z" fill="url(#paint0_radial_35_4104)" fill-opacity="0.2"/>
<path d="M181 217C181 242.957 150.108 223.5 112 223.5C73.8924 223.5 43 242.957 43 217C43 191.043 73.8924 170 112 170C150.108 170 181 191.043 181 217Z" fill="#C8C8C8"/>
<path d="M181 217C181 242.957 150.108 223.5 112 223.5C73.8924 223.5 43 242.957 43 217C43 191.043 73.8924 170 112 170C150.108 170 181 191.043 181 217Z" fill="url(#paint1_linear_35_4104)" fill-opacity="0.4"/>
<ellipse cx="111.5" cy="150" rx="32.5" ry="32" fill="#C8C8C8"/>
<ellipse cx="111.5" cy="150" rx="32.5" ry="32" fill="url(#paint2_radial_35_4104)" fill-opacity="0.4"/>
</g>
<defs>
<radialGradient id="paint0_radial_35_4104" cx="0" cy="0" r="1" gradientUnits="userSpaceOnUse" gradientTransform="translate(111.5 124) rotate(-90) scale(65.5)">
<stop stop-color="white"/>
<stop offset="1" stop-color="white" stop-opacity="0"/>
</radialGradient>
<linearGradient id="paint1_linear_35_4104" x1="112" y1="170" x2="112" y2="230.502" gradientUnits="userSpaceOnUse">
<stop stop-color="#5D5FEF" stop-opacity="0"/>
<stop offset="1" stop-color="#5D5FEF"/>
</linearGradient>
<radialGradient id="paint2_radial_35_4104" cx="0" cy="0" r="1" gradientUnits="userSpaceOnUse" gradientTransform="translate(111.5 121.5) rotate(90) scale(60.5 60.5)">
<stop stop-color="#ECECFF"/>
<stop offset="0.450641" stop-color="#5D5FEF" stop-opacity="0"/>
<stop offset="1" stop-color="#5D5FEF" stop-opacity="0.7"/>
</radialGradient>
<clipPath id="clip0_35_4104">
<rect width="223" height="223" fill="white"/>
</clipPath>
</defs>
</svg>
