<svg width="223" height="223" viewBox="0 0 223 223" fill="none" xmlns="http://www.w3.org/2000/svg">
<g clip-path="url(#clip0_35_1893)">
<rect x="21" y="42" width="181" height="181" rx="20" fill="#5D5FEF"/>
<path d="M146.169 48.9642C149.269 48.1741 151.451 51.9544 149.217 54.2435L142.172 61.4631C140.493 63.1829 141.267 66.0722 143.581 66.7224L153.292 69.4519C156.371 70.3174 156.371 74.6825 153.292 75.548L143.581 78.2775C141.267 78.9277 140.493 81.817 142.172 83.5368L149.217 90.7564C151.451 93.0455 149.269 96.8259 146.169 96.0357L136.394 93.5438C134.065 92.9502 131.95 95.0653 132.544 97.3939L135.036 107.169C135.826 110.268 132.046 112.451 129.756 110.217L122.537 103.171C120.817 101.493 117.928 102.267 117.278 104.581L114.548 114.292C113.683 117.371 109.317 117.371 108.452 114.292L105.722 104.581C105.072 102.267 102.183 101.493 100.463 103.171L93.2436 110.217C90.9544 112.451 87.1741 110.268 87.9642 107.169L90.4561 97.3939C91.0498 95.0653 88.9346 92.9502 86.606 93.5438L76.8309 96.0357C73.7315 96.8258 71.5489 93.0455 73.7829 90.7564L80.8285 83.5368C82.5069 81.817 81.7327 78.9277 79.4192 78.2775L69.7078 75.548C66.6285 74.6825 66.6285 70.3174 69.7078 69.4519L79.4192 66.7224C81.7327 66.0722 82.5069 63.1829 80.8285 61.4631L73.7829 54.2435C71.5489 51.9544 73.7315 48.1741 76.8309 48.9642L86.606 51.4561C88.9346 52.0497 91.0498 49.9346 90.4561 47.606L87.9642 37.8309C87.1741 34.7314 90.9544 32.5488 93.2436 34.7828L100.463 41.8284C102.183 43.5068 105.072 42.7326 105.722 40.4192L108.452 30.7078C109.317 27.6285 113.683 27.6285 114.548 30.7078L117.278 40.4192C117.928 42.7326 120.817 43.5068 122.537 41.8284L129.756 34.7828C132.046 32.5488 135.826 34.7314 135.036 37.8309L132.544 47.606C131.95 49.9346 134.065 52.0497 136.394 51.4561L146.169 48.9642Z" fill="#C7E747"/>
<path d="M146.169 48.9642C149.269 48.1741 151.451 51.9544 149.217 54.2435L142.172 61.4631C140.493 63.1829 141.267 66.0722 143.581 66.7224L153.292 69.4519C156.371 70.3174 156.371 74.6825 153.292 75.548L143.581 78.2775C141.267 78.9277 140.493 81.817 142.172 83.5368L149.217 90.7564C151.451 93.0455 149.269 96.8259 146.169 96.0357L136.394 93.5438C134.065 92.9502 131.95 95.0653 132.544 97.3939L135.036 107.169C135.826 110.268 132.046 112.451 129.756 110.217L122.537 103.171C120.817 101.493 117.928 102.267 117.278 104.581L114.548 114.292C113.683 117.371 109.317 117.371 108.452 114.292L105.722 104.581C105.072 102.267 102.183 101.493 100.463 103.171L93.2436 110.217C90.9544 112.451 87.1741 110.268 87.9642 107.169L90.4561 97.3939C91.0498 95.0653 88.9346 92.9502 86.606 93.5438L76.8309 96.0357C73.7315 96.8258 71.5489 93.0455 73.7829 90.7564L80.8285 83.5368C82.5069 81.817 81.7327 78.9277 79.4192 78.2775L69.7078 75.548C66.6285 74.6825 66.6285 70.3174 69.7078 69.4519L79.4192 66.7224C81.7327 66.0722 82.5069 63.1829 80.8285 61.4631L73.7829 54.2435C71.5489 51.9544 73.7315 48.1741 76.8309 48.9642L86.606 51.4561C88.9346 52.0497 91.0498 49.9346 90.4561 47.606L87.9642 37.8309C87.1741 34.7314 90.9544 32.5488 93.2436 34.7828L100.463 41.8284C102.183 43.5068 105.072 42.7326 105.722 40.4192L108.452 30.7078C109.317 27.6285 113.683 27.6285 114.548 30.7078L117.278 40.4192C117.928 42.7326 120.817 43.5068 122.537 41.8284L129.756 34.7828C132.046 32.5488 135.826 34.7314 135.036 37.8309L132.544 47.606C131.95 49.9346 134.065 52.0497 136.394 51.4561L146.169 48.9642Z" fill="url(#paint0_linear_35_1893)" fill-opacity="0.6"/>
<path d="M181 217C181 242.957 150.108 223.5 112 223.5C73.8924 223.5 43 242.957 43 217C43 191.043 73.8924 170 112 170C150.108 170 181 191.043 181 217Z" fill="#242424"/>
<path d="M181 217C181 242.957 150.108 223.5 112 223.5C73.8924 223.5 43 242.957 43 217C43 191.043 73.8924 170 112 170C150.108 170 181 191.043 181 217Z" fill="url(#paint1_linear_35_1893)" fill-opacity="0.4"/>
<ellipse cx="111.5" cy="150" rx="32.5" ry="32" fill="#242424"/>
<ellipse cx="111.5" cy="150" rx="32.5" ry="32" fill="url(#paint2_radial_35_1893)" fill-opacity="0.4"/>
</g>
<defs>
<linearGradient id="paint0_linear_35_1893" x1="113.758" y1="29.5" x2="113.758" y2="92" gradientUnits="userSpaceOnUse">
<stop stop-color="#5D5FEF"/>
<stop offset="1" stop-color="white" stop-opacity="0"/>
</linearGradient>
<linearGradient id="paint1_linear_35_1893" x1="112" y1="170" x2="112" y2="230.502" gradientUnits="userSpaceOnUse">
<stop stop-color="#5D5FEF" stop-opacity="0"/>
<stop offset="1" stop-color="#5D5FEF"/>
</linearGradient>
<radialGradient id="paint2_radial_35_1893" cx="0" cy="0" r="1" gradientUnits="userSpaceOnUse" gradientTransform="translate(111.5 121.5) rotate(90) scale(60.5 60.5)">
<stop stop-color="#ECECFF"/>
<stop offset="0.450641" stop-color="#5D5FEF" stop-opacity="0"/>
<stop offset="1" stop-color="#5D5FEF" stop-opacity="0.7"/>
</radialGradient>
<clipPath id="clip0_35_1893">
<rect width="223" height="223" fill="white"/>
</clipPath>
</defs>
</svg>
