<svg width="223" height="400" viewBox="0 0 223 400" fill="none" xmlns="http://www.w3.org/2000/svg">
<path d="M48 21L55.409 43.8024H79.3849L59.988 57.8951L67.3969 80.6976L48 66.6049L28.6031 80.6976L36.012 57.8951L16.6151 43.8024H40.591L48 21Z" fill="#5D5FEF"/>
<path d="M48 21L55.409 43.8024H79.3849L59.988 57.8951L67.3969 80.6976L48 66.6049L28.6031 80.6976L36.012 57.8951L16.6151 43.8024H40.591L48 21Z" fill="#5D5FEF"/>
<path d="M161 77L186.37 155.081L268.469 155.081L202.05 203.338L227.42 281.419L161 233.162L94.5803 281.419L119.95 203.338L53.5306 155.081L135.63 155.081L161 77Z" fill="#5D5FEF"/>
<path d="M42 266L60.8592 324.043H121.889L72.5148 359.915L91.374 417.957L42 382.085L-7.37396 417.957L11.4852 359.915L-37.8887 324.043H23.1408L42 266Z" fill="#5D5FEF"/>
</svg>
