<svg width="223" height="223" viewBox="0 0 223 223" fill="none" xmlns="http://www.w3.org/2000/svg">
<g clip-path="url(#clip0_35_4116)">
<rect x="21" y="42" width="181" height="181" rx="20" fill="#F5F5F5"/>
<ellipse cx="81.5" cy="159" rx="13.5" ry="13" fill="#C7E747"/>
<path d="M115.994 120.086C117.399 118.734 119.732 119.827 119.593 121.772L119.495 123.144C119.393 124.586 120.726 125.709 122.13 125.362L123.465 125.032C125.358 124.564 126.831 126.676 125.739 128.292L124.968 129.431C124.158 130.628 124.752 132.267 126.141 132.669L127.462 133.051C129.335 133.592 129.555 136.158 127.802 137.011L126.565 137.612C125.264 138.244 124.959 139.96 125.961 141.002L126.914 141.994C128.266 143.399 127.173 145.732 125.228 145.593L123.856 145.495C122.414 145.393 121.291 146.726 121.638 148.13L121.968 149.465C122.436 151.358 120.324 152.831 118.708 151.739L117.569 150.968C116.372 150.158 114.733 150.752 114.331 152.141L113.949 153.462C113.408 155.335 110.842 155.555 109.989 153.802L109.388 152.565C108.756 151.264 107.04 150.959 105.998 151.961L105.006 152.914C103.601 154.266 101.268 153.173 101.407 151.228L101.505 149.856C101.607 148.414 100.274 147.291 98.8704 147.638L97.5352 147.968C95.6421 148.436 94.1685 146.324 95.2611 144.708L96.0316 143.569C96.8416 142.372 96.2481 140.733 94.8593 140.331L93.5381 139.949C91.6647 139.408 91.4446 136.842 93.1985 135.989L94.4354 135.388C95.7355 134.756 96.0412 133.04 95.0392 131.998L94.0859 131.006C92.7343 129.601 93.8266 127.268 95.7718 127.407L97.1436 127.505C98.5856 127.607 99.7085 126.274 99.3618 124.87L99.0319 123.535C98.5641 121.642 100.676 120.169 102.292 121.261L103.431 122.032C104.628 122.842 106.267 122.248 106.669 120.859L107.051 119.538C107.592 117.665 110.158 117.445 111.011 119.198L111.612 120.435C112.244 121.736 113.96 122.041 115.002 121.039L115.994 120.086Z" fill="#5D5FEF"/>
<path d="M138.917 140.472C139.588 139.835 140.666 139.844 141.325 140.492L154.511 153.453C155.171 154.101 155.162 155.144 154.491 155.781L141.083 168.528C140.412 169.165 139.334 169.156 138.675 168.508L125.489 155.547C124.829 154.899 124.838 153.856 125.509 153.219L138.917 140.472Z" fill="#E78147"/>
<path d="M138.917 140.472C139.588 139.835 140.666 139.844 141.325 140.492L154.511 153.453C155.171 154.101 155.162 155.144 154.491 155.781L141.083 168.528C140.412 169.165 139.334 169.156 138.675 168.508L125.489 155.547C124.829 154.899 124.838 153.856 125.509 153.219L138.917 140.472Z" fill="url(#paint0_linear_35_4116)" fill-opacity="0.2"/>
<path d="M173 143.726C173 167.323 145.466 149.635 111.5 149.635C77.5345 149.635 50 167.323 50 143.726C50 120.129 77.5345 101 111.5 101C145.466 101 173 120.129 173 143.726Z" fill="#C8C8C8"/>
<path d="M173 143.726C173 167.323 145.466 149.635 111.5 149.635C77.5345 149.635 50 167.323 50 143.726C50 120.129 77.5345 101 111.5 101C145.466 101 173 120.129 173 143.726Z" fill="url(#paint1_linear_35_4116)" fill-opacity="0.4"/>
<ellipse cx="111.5" cy="84" rx="28.5" ry="28" fill="#C8C8C8"/>
<ellipse cx="111.5" cy="84" rx="28.5" ry="28" fill="url(#paint2_radial_35_4116)" fill-opacity="0.4"/>
<rect x="43" y="138" width="137" height="100" rx="10" fill="#878787"/>
<rect x="43" y="138" width="137" height="100" rx="10" fill="url(#paint3_linear_35_4116)" fill-opacity="0.2"/>
</g>
<defs>
<linearGradient id="paint0_linear_35_4116" x1="147.918" y1="146.973" x2="132.61" y2="162.546" gradientUnits="userSpaceOnUse">
<stop stop-color="white" stop-opacity="0"/>
<stop offset="1" stop-color="white"/>
</linearGradient>
<linearGradient id="paint1_linear_35_4116" x1="111.5" y1="101" x2="111.5" y2="156" gradientUnits="userSpaceOnUse">
<stop stop-color="#5D5FEF" stop-opacity="0"/>
<stop offset="1" stop-color="#5D5FEF"/>
</linearGradient>
<radialGradient id="paint2_radial_35_4116" cx="0" cy="0" r="1" gradientUnits="userSpaceOnUse" gradientTransform="translate(111.5 59.0625) rotate(90) scale(52.9375 53.0538)">
<stop stop-color="#ECECFF"/>
<stop offset="0.450641" stop-color="#5D5FEF" stop-opacity="0"/>
<stop offset="1" stop-color="#5D5FEF" stop-opacity="0.7"/>
</radialGradient>
<linearGradient id="paint3_linear_35_4116" x1="149" y1="233" x2="87" y2="126" gradientUnits="userSpaceOnUse">
<stop stop-color="#5D5FEF" stop-opacity="0"/>
<stop offset="1" stop-color="#5D5FEF"/>
</linearGradient>
<clipPath id="clip0_35_4116">
<rect width="223" height="223" fill="white"/>
</clipPath>
</defs>
</svg>
