<svg width="223" height="223" viewBox="0 0 223 223" fill="none" xmlns="http://www.w3.org/2000/svg">
<g clip-path="url(#clip0_35_3009)">
<rect x="21" y="42" width="181" height="181" rx="20" fill="#E74764"/>
<circle cx="44.5" cy="106.5" r="31.5" fill="#C7E747"/>
<path d="M125.748 15.2968C129.049 12.1224 134.526 14.6878 134.201 19.2561L133.971 22.4779C133.73 25.8644 136.862 28.5015 140.158 27.6872L143.294 26.9124C147.74 25.8139 151.2 30.7743 148.634 34.5678L146.825 37.2432C144.923 40.0554 146.316 43.9052 149.578 44.8479L152.681 45.7448C157.081 47.0165 157.597 53.0427 153.478 55.045L150.574 56.4571C147.52 57.9415 146.802 61.9723 149.156 64.4196L151.394 66.7477C154.569 70.049 152.003 75.5262 147.435 75.2008L144.213 74.9713C140.827 74.73 138.19 77.8619 139.004 81.1579L139.779 84.2936C140.877 88.7397 135.917 92.2004 132.123 89.6344L129.448 87.8248C126.636 85.9226 122.786 87.3164 121.843 90.578L120.946 93.6809C119.675 98.0806 113.648 98.5974 111.646 94.4785L110.234 91.5736C108.75 88.5202 104.719 87.8023 102.272 90.1556L99.9434 92.3943C96.6421 95.5687 91.1649 93.0033 91.4903 88.435L91.7198 85.2132C91.9611 81.8267 88.8292 79.1896 85.5332 80.0039L82.3975 80.7787C77.9514 81.8772 74.4907 76.9168 77.0567 73.1233L78.8663 70.4479C80.7685 67.6357 79.3747 63.7859 76.1131 62.8432L73.0102 61.9463C68.6105 60.6746 68.0937 54.6484 72.2126 52.6461L75.1175 51.234C78.1709 49.7496 78.8888 45.7188 76.5355 43.2715L74.2968 40.9434C71.1224 37.6421 73.6878 32.1649 78.2561 32.4903L81.4779 32.7198C84.8644 32.9611 87.5015 29.8292 86.6872 26.5332L85.9124 23.3975C84.8139 18.9514 89.7743 15.4907 93.5678 18.0567L96.2432 19.8663C99.0554 21.7685 102.905 20.3747 103.848 17.1131L104.745 14.0103C106.017 9.6105 112.043 9.09367 114.045 13.2126L115.457 16.1175C116.941 19.1709 120.972 19.8888 123.42 17.5355L125.748 15.2968Z" fill="#5D5FEF"/>
<path d="M180.348 61.8046C181.924 60.2557 184.456 60.2768 186.005 61.8519L216.979 93.3483C218.528 94.9234 218.507 97.456 216.932 99.005L185.435 129.979C183.86 131.528 181.328 131.507 179.779 129.932L148.805 98.4353C147.256 96.8602 147.277 94.3276 148.852 92.7786L180.348 61.8046Z" fill="#E78147"/>
<path d="M180.348 61.8046C181.924 60.2557 184.456 60.2768 186.005 61.8519L216.979 93.3483C218.528 94.9234 218.507 97.456 216.932 99.005L185.435 129.979C183.86 131.528 181.328 131.507 179.779 129.932L148.805 98.4353C147.256 96.8602 147.277 94.3276 148.852 92.7786L180.348 61.8046Z" fill="url(#paint0_linear_35_3009)" fill-opacity="0.2"/>
<path d="M163 206.511C163 226.676 139.943 211.561 111.5 211.561C83.0573 211.561 60 226.676 60 206.511C60 186.347 83.0573 170 111.5 170C139.943 170 163 186.347 163 206.511Z" fill="#242424"/>
<path d="M163 206.511C163 226.676 139.943 211.561 111.5 211.561C83.0573 211.561 60 226.676 60 206.511C60 186.347 83.0573 170 111.5 170C139.943 170 163 186.347 163 206.511Z" fill="url(#paint1_linear_35_3009)" fill-opacity="0.4"/>
<circle cx="111.5" cy="156.5" r="23.5" fill="#242424"/>
<circle cx="111.5" cy="156.5" r="23.5" fill="url(#paint2_radial_35_3009)" fill-opacity="0.4"/>
<rect x="40" y="201" width="143" height="84" rx="10" fill="#3A3A3A"/>
<rect x="40" y="201" width="143" height="84" rx="10" fill="url(#paint3_linear_35_3009)" fill-opacity="0.2"/>
</g>
<defs>
<linearGradient id="paint0_linear_35_3009" x1="201.492" y1="77.6002" x2="164.292" y2="114.184" gradientUnits="userSpaceOnUse">
<stop stop-color="white" stop-opacity="0"/>
<stop offset="1" stop-color="white"/>
</linearGradient>
<linearGradient id="paint1_linear_35_3009" x1="111.5" y1="170" x2="111.5" y2="217" gradientUnits="userSpaceOnUse">
<stop stop-color="#5D5FEF" stop-opacity="0"/>
<stop offset="1" stop-color="#5D5FEF"/>
</linearGradient>
<radialGradient id="paint2_radial_35_3009" cx="0" cy="0" r="1" gradientUnits="userSpaceOnUse" gradientTransform="translate(111.5 135.57) rotate(90) scale(44.4297 43.7462)">
<stop stop-color="#ECECFF"/>
<stop offset="0.450641" stop-color="#5D5FEF" stop-opacity="0"/>
<stop offset="1" stop-color="#5D5FEF" stop-opacity="0.7"/>
</radialGradient>
<linearGradient id="paint3_linear_35_3009" x1="150.642" y1="280.8" x2="104.658" y2="182.186" gradientUnits="userSpaceOnUse">
<stop stop-color="#5D5FEF" stop-opacity="0"/>
<stop offset="1" stop-color="#5D5FEF"/>
</linearGradient>
<clipPath id="clip0_35_3009">
<rect width="223" height="223" fill="white"/>
</clipPath>
</defs>
</svg>
