<svg width="403" height="200" viewBox="0 0 403 200" fill="none" xmlns="http://www.w3.org/2000/svg">
<path d="M99.4875 96.1539V87.4112L132.137 48.7267L137.476 54.1425H101.499V41.9956H146.683V50.6609L114.11 89.4228L108.772 84.5486H147.534V96.1539H99.4875Z" fill="#242424"/>
<path d="M152.983 96.1539V55.071H165.44V96.1539H152.983ZM159.173 46.6377C156.852 46.6377 155.047 46.0961 153.757 45.013C152.468 43.8782 151.823 42.2793 151.823 40.2161C151.823 38.3592 152.468 36.8376 153.757 35.6513C155.098 34.465 156.903 33.8718 159.173 33.8718C161.494 33.8718 163.299 34.4392 164.589 35.5739C165.878 36.6571 166.523 38.2045 166.523 40.2161C166.523 42.1245 165.852 43.6719 164.511 44.8582C163.222 46.0446 161.442 46.6377 159.173 46.6377Z" fill="#242424"/>
<path d="M174.626 96.1539V38.9008H187.005V96.1539H174.626Z" fill="#242424"/>
<path d="M215.27 96.9276C210.267 96.9276 205.882 96.025 202.117 94.2197C198.403 92.3629 195.515 89.8613 193.452 86.7149C191.388 83.517 190.357 79.8806 190.357 75.8059C190.357 72.5564 190.95 69.6163 192.136 66.9858C193.323 64.3552 194.973 62.0858 197.088 60.1773C199.203 58.2689 201.679 56.7989 204.515 55.7673C207.352 54.7357 210.421 54.2199 213.722 54.2199C216.92 54.2199 219.86 54.7357 222.542 55.7673C225.225 56.7473 227.546 58.1657 229.506 60.0226C231.517 61.8794 233.065 64.0716 234.148 66.5989C235.231 69.1263 235.721 71.9116 235.618 74.9548L235.54 78.4364H198.481L196.701 71.2411H225.482L224.167 72.7885V71.2411C224.012 69.9516 223.445 68.7911 222.465 67.7595C221.537 66.7279 220.325 65.9284 218.829 65.361C217.333 64.7421 215.682 64.4326 213.877 64.4326C211.556 64.4326 209.493 64.8195 207.688 65.5932C205.882 66.3153 204.464 67.45 203.432 68.9974C202.452 70.5448 201.962 72.5048 201.962 74.8774C201.962 77.1469 202.555 79.1327 203.742 80.8349C204.98 82.537 206.708 83.878 208.925 84.8581C211.195 85.8381 213.851 86.3281 216.894 86.3281C219.525 86.3281 221.717 86.0186 223.471 85.3996C225.276 84.7291 226.901 83.9038 228.345 82.9238L233.916 90.9702C232.214 92.2597 230.331 93.3687 228.268 94.2971C226.256 95.1739 224.141 95.8187 221.923 96.2313C219.757 96.6955 217.539 96.9276 215.27 96.9276Z" fill="#242424"/>
<path d="M240.154 96.1539V38.9008H252.533V96.1539H240.154Z" fill="#242424"/>
<path d="M280.798 96.9276C275.794 96.9276 271.41 96.025 267.645 94.2197C263.931 92.3629 261.043 89.8613 258.98 86.7149C256.916 83.517 255.885 79.8806 255.885 75.8059C255.885 72.5564 256.478 69.6163 257.664 66.9858C258.851 64.3552 260.501 62.0858 262.616 60.1773C264.731 58.2689 267.207 56.7989 270.043 55.7673C272.88 54.7357 275.949 54.2199 279.25 54.2199C282.448 54.2199 285.388 54.7357 288.07 55.7673C290.753 56.7473 293.074 58.1657 295.034 60.0226C297.045 61.8794 298.593 64.0716 299.676 66.5989C300.759 69.1263 301.249 71.9116 301.146 74.9548L301.068 78.4364H264.009L262.229 71.2411H291.01L289.695 72.7885V71.2411C289.54 69.9516 288.973 68.7911 287.993 67.7595C287.065 66.7279 285.852 65.9284 284.357 65.361C282.861 64.7421 281.21 64.4326 279.405 64.4326C277.084 64.4326 275.021 64.8195 273.216 65.5932C271.41 66.3153 269.992 67.45 268.96 68.9974C267.98 70.5448 267.49 72.5048 267.49 74.8774C267.49 77.1469 268.083 79.1327 269.27 80.8349C270.508 82.537 272.236 83.878 274.453 84.8581C276.723 85.8381 279.379 86.3281 282.422 86.3281C285.053 86.3281 287.245 86.0186 288.999 85.3996C290.804 84.7291 292.429 83.9038 293.873 82.9238L299.444 90.9702C297.742 92.2597 295.859 93.3687 293.796 94.2971C291.784 95.1739 289.669 95.8187 287.451 96.2313C285.285 96.6955 283.067 96.9276 280.798 96.9276Z" fill="#242424"/>
<path d="M129.661 165.834C125.38 165.834 121.383 165.164 117.669 163.823C114.007 162.43 110.783 160.496 107.998 158.02C105.264 155.544 103.15 152.604 101.654 149.2C100.158 145.744 99.4102 141.927 99.4102 137.749C99.4102 133.675 100.184 129.935 101.731 126.531C103.33 123.127 105.497 120.187 108.23 117.711C110.964 115.235 114.188 113.301 117.901 111.908C121.615 110.516 125.612 109.819 129.894 109.819C132.834 109.819 135.67 110.18 138.404 110.902C141.189 111.625 143.768 112.63 146.141 113.92C148.514 115.209 150.525 116.679 152.176 118.33L144.362 128.078C143.124 126.892 141.783 125.86 140.338 124.984C138.894 124.055 137.269 123.333 135.464 122.817C133.659 122.25 131.673 121.966 129.507 121.966C127.392 121.966 125.329 122.327 123.317 123.049C121.306 123.771 119.526 124.829 117.979 126.221C116.431 127.563 115.193 129.239 114.265 131.25C113.388 133.211 112.95 135.428 112.95 137.904C112.95 140.38 113.414 142.598 114.342 144.558C115.271 146.518 116.535 148.194 118.133 149.587C119.784 150.928 121.692 151.96 123.859 152.682C126.025 153.404 128.372 153.765 130.899 153.765C133.117 153.765 135.129 153.455 136.934 152.836C138.739 152.218 140.364 151.47 141.808 150.593C143.253 149.664 144.542 148.684 145.677 147.653L151.944 157.788C150.551 159.129 148.694 160.419 146.373 161.657C144.052 162.894 141.447 163.9 138.559 164.674C135.67 165.448 132.705 165.834 129.661 165.834Z" fill="#242424"/>
<path d="M171.397 165.757C167.322 165.757 163.763 164.854 160.72 163.049C157.677 161.244 155.278 158.742 153.524 155.544C151.822 152.295 150.971 148.607 150.971 144.481C150.971 140.303 151.848 136.615 153.602 133.417C155.355 130.219 157.78 127.717 160.874 125.912C164.021 124.055 167.631 123.127 171.706 123.127C174.027 123.127 176.168 123.436 178.128 124.055C180.088 124.623 181.79 125.422 183.234 126.454C184.73 127.485 185.942 128.62 186.87 129.858C187.85 131.096 188.495 132.385 188.805 133.726H186.097V123.978H198.321V165.061H185.865V154.539L188.495 154.925C188.186 156.266 187.541 157.582 186.561 158.871C185.581 160.161 184.317 161.321 182.77 162.353C181.223 163.384 179.469 164.21 177.509 164.829C175.6 165.448 173.563 165.757 171.397 165.757ZM174.724 155.312C177.045 155.312 179.056 154.874 180.758 153.997C182.512 153.12 183.853 151.882 184.781 150.283C185.761 148.633 186.251 146.699 186.251 144.481C186.251 142.314 185.761 140.432 184.781 138.833C183.853 137.182 182.512 135.893 180.758 134.964C179.056 134.036 177.045 133.572 174.724 133.572C172.402 133.572 170.391 134.036 168.689 134.964C166.987 135.893 165.646 137.182 164.666 138.833C163.737 140.432 163.273 142.314 163.273 144.481C163.273 146.699 163.737 148.633 164.666 150.283C165.646 151.882 166.987 153.12 168.689 153.997C170.391 154.874 172.402 155.312 174.724 155.312Z" fill="#242424"/>
<path d="M206.586 165.061V123.978H218.346L218.888 138.136L215.948 136.666C216.618 134.139 217.779 131.869 219.43 129.858C221.132 127.795 223.066 126.17 225.232 124.984C227.45 123.746 229.797 123.127 232.273 123.127C233.614 123.127 234.878 123.256 236.064 123.514C237.302 123.771 238.359 124.107 239.236 124.519L235.832 138.059C235.058 137.492 234.001 137.053 232.66 136.744C231.37 136.434 230.055 136.279 228.714 136.279C227.218 136.279 225.851 136.537 224.613 137.053C223.427 137.517 222.421 138.188 221.596 139.065C220.771 139.89 220.126 140.844 219.662 141.927C219.249 143.011 219.043 144.171 219.043 145.409V165.061H206.586Z" fill="#242424"/>
<path d="M242.916 165.061V123.978H255.372V165.061H242.916ZM249.105 115.545C246.784 115.545 244.979 115.003 243.69 113.92C242.4 112.785 241.755 111.186 241.755 109.123C241.755 107.266 242.4 105.744 243.69 104.558C245.031 103.372 246.836 102.779 249.105 102.779C251.426 102.779 253.232 103.346 254.521 104.481C255.811 105.564 256.455 107.111 256.455 109.123C256.455 111.031 255.785 112.579 254.444 113.765C253.154 114.951 251.375 115.545 249.105 115.545Z" fill="#242424"/>
<path d="M284.829 165.834C279.826 165.834 275.442 164.932 271.677 163.127C267.963 161.27 265.074 158.768 263.011 155.622C260.948 152.424 259.917 148.787 259.917 144.713C259.917 141.463 260.51 138.523 261.696 135.893C262.882 133.262 264.533 130.993 266.648 129.084C268.762 127.176 271.238 125.706 274.075 124.674C276.912 123.643 279.981 123.127 283.282 123.127C286.48 123.127 289.42 123.643 292.102 124.674C294.784 125.654 297.105 127.073 299.065 128.929C301.077 130.786 302.624 132.978 303.707 135.506C304.791 138.033 305.281 140.818 305.177 143.862L305.1 147.343H268.04L266.261 140.148H295.042L293.727 141.695V140.148C293.572 138.858 293.005 137.698 292.025 136.666C291.096 135.635 289.884 134.835 288.388 134.268C286.893 133.649 285.242 133.339 283.437 133.339C281.116 133.339 279.052 133.726 277.247 134.5C275.442 135.222 274.023 136.357 272.992 137.904C272.012 139.452 271.522 141.412 271.522 143.784C271.522 146.054 272.115 148.04 273.301 149.742C274.539 151.444 276.267 152.785 278.485 153.765C280.755 154.745 283.411 155.235 286.454 155.235C289.085 155.235 291.277 154.925 293.03 154.306C294.836 153.636 296.461 152.811 297.905 151.831L303.475 159.877C301.773 161.167 299.891 162.275 297.827 163.204C295.816 164.081 293.701 164.726 291.483 165.138C289.317 165.602 287.099 165.834 284.829 165.834Z" fill="#242424"/>
<path d="M309.714 165.061V123.978H321.474L322.015 138.136L319.075 136.666C319.746 134.139 320.906 131.869 322.557 129.858C324.259 127.795 326.193 126.17 328.36 124.984C330.578 123.746 332.924 123.127 335.4 123.127C336.741 123.127 338.005 123.256 339.191 123.514C340.429 123.771 341.487 124.107 342.364 124.519L338.959 138.059C338.186 137.492 337.128 137.053 335.787 136.744C334.498 136.434 333.182 136.279 331.841 136.279C330.346 136.279 328.979 136.537 327.741 137.053C326.554 137.517 325.549 138.188 324.723 139.065C323.898 139.89 323.253 140.844 322.789 141.927C322.377 143.011 322.17 144.171 322.17 145.409V165.061H309.714Z" fill="#242424"/>
<path d="M363.957 165.834C358.954 165.834 354.57 164.932 350.805 163.127C347.091 161.27 344.202 158.768 342.139 155.622C340.076 152.424 339.045 148.787 339.045 144.713C339.045 141.463 339.638 138.523 340.824 135.893C342.01 133.262 343.661 130.993 345.776 129.084C347.89 127.176 350.366 125.706 353.203 124.674C356.04 123.643 359.109 123.127 362.41 123.127C365.608 123.127 368.548 123.643 371.23 124.674C373.912 125.654 376.233 127.073 378.193 128.929C380.205 130.786 381.752 132.978 382.835 135.506C383.919 138.033 384.409 140.818 384.305 143.862L384.228 147.343H347.168L345.389 140.148H374.17L372.855 141.695V140.148C372.7 138.858 372.133 137.698 371.153 136.666C370.224 135.635 369.012 134.835 367.516 134.268C366.021 133.649 364.37 133.339 362.565 133.339C360.244 133.339 358.18 133.726 356.375 134.5C354.57 135.222 353.151 136.357 352.12 137.904C351.14 139.452 350.65 141.412 350.65 143.784C350.65 146.054 351.243 148.04 352.429 149.742C353.667 151.444 355.395 152.785 357.613 153.765C359.883 154.745 362.539 155.235 365.582 155.235C368.213 155.235 370.405 154.925 372.158 154.306C373.964 153.636 375.589 152.811 377.033 151.831L382.603 159.877C380.901 161.167 379.019 162.275 376.955 163.204C374.944 164.081 372.829 164.726 370.611 165.138C368.445 165.602 366.227 165.834 363.957 165.834Z" fill="#242424"/>
<path d="M389.461 165.061V123.978H401.917V165.061H389.461ZM395.65 115.545C393.329 115.545 391.524 115.003 390.234 113.92C388.945 112.785 388.3 111.186 388.3 109.123C388.3 107.266 388.945 105.744 390.234 104.558C391.576 103.372 393.381 102.779 395.65 102.779C397.971 102.779 399.777 103.346 401.066 104.481C402.356 105.564 403 107.111 403 109.123C403 111.031 402.33 112.579 400.989 113.765C399.699 114.951 397.92 115.545 395.65 115.545Z" fill="#242424"/>
<path fill-rule="evenodd" clip-rule="evenodd" d="M95.6229 149.646C95.8472 150.269 96.0909 150.885 96.3543 151.494L96.367 151.523C98.1872 155.665 100.78 159.274 104.122 162.3L104.162 162.336C107.497 165.301 111.333 167.591 115.616 169.22L115.668 169.239L115.708 169.254C120.101 170.84 124.768 171.609 129.661 171.609C133.2 171.609 136.668 171.158 140.053 170.251C143.309 169.379 146.332 168.222 149.09 166.751C150.487 166.006 151.8 165.212 153.007 164.358C154.428 165.752 156.018 166.974 157.773 168.015C161.224 170.062 165.067 171.168 169.181 171.455C151.223 188.848 126.75 199.556 99.7778 199.556C44.672 199.556 0 154.861 0 99.7777C0 44.6944 44.672 0 99.7778 0C129.274 0 155.781 12.8054 174.048 33.155C172.88 33.2712 171.814 33.7353 170.956 34.4423C170.334 33.2526 169.479 32.1519 168.353 31.1956C165.696 28.8836 162.38 28.0974 159.173 28.0974C155.883 28.0974 152.587 28.9769 149.931 31.3263C149.903 31.3512 149.875 31.3763 149.847 31.4017C148.346 32.7827 147.298 34.422 146.688 36.2212L146.682 36.2212H101.499C98.3097 36.2212 95.7245 38.8064 95.7245 41.9955V49.9063C68.7783 50.6146 47.1521 72.6716 47.1521 99.7777C47.1521 126.85 68.724 148.885 95.6229 149.646Z" fill="#242424"/>
</svg>
