<svg width="658" height="776" viewBox="0 0 658 776" fill="none" xmlns="http://www.w3.org/2000/svg">
<g clip-path="url(#clip0_121_1572)">
<rect width="658" height="776" rx="30" fill="#C7E747"/>
<path d="M734.329 198.081C710.486 312.717 670.016 428.874 633.092 517.143C616.364 557.121 600.375 591.378 586.99 617.177C586.458 618.185 585.948 619.179 585.43 620.159C575.467 639.157 567.027 653.257 560.927 661.302C528.61 703.884 351.542 799.596 458.52 614.522C424.973 649.822 386.932 682.901 350.37 710.129C319.342 733.237 289.371 752.134 264.12 764.595C263.138 765.078 262.169 765.554 261.207 766.014C197.637 796.571 165.696 784.642 226.105 693.297C119.285 775.479 -77.6536 818.063 52.7865 501.995C120.834 333.581 236.364 172.649 234.622 284.805C243 256.157 257.114 229.486 272.542 209.742C273.458 208.566 274.387 207.408 275.316 206.279C311.031 162.916 352.289 157.561 345.847 249.972C345.758 251.25 345.661 252.543 345.554 253.853C345.206 258.168 344.75 262.7 344.192 267.427C346.203 262.856 348.212 258.349 350.232 253.909C350.816 252.616 351.407 251.331 351.998 250.047C358.738 235.387 365.522 221.478 372.332 208.343C383.175 187.398 394.076 168.379 404.89 151.277C405.472 150.354 406.051 149.441 406.636 148.532C420.164 127.363 433.559 109.188 446.579 93.9489C533.589 -7.92848 603.7 21.3652 583.527 168.21C668.592 51.5932 777.555 -9.75084 734.328 198.076L734.329 198.081Z" fill="#212121"/>
<path d="M45.4727 518.362C113.501 349.941 229.01 189.002 227.277 301.167C256.531 201.167 355.501 125.304 336.846 283.801C459.967 3.13531 603.968 -18.0077 576.155 184.599C661.205 67.9814 770.156 6.64269 726.955 214.481C683.75 422.321 585.908 635.143 553.601 677.724C521.294 720.305 344.244 816.003 451.194 630.926C315.375 773.872 105.964 880.321 218.799 709.69C111.992 791.868 -84.9312 834.442 45.4727 518.362Z" fill="#5D5FEF"/>
<path d="M214.638 797.317C204.056 799.231 196.285 798.266 191.447 794.415C185.28 789.514 184.2 780.126 188.237 766.521C192.292 752.853 201.546 734.85 215.749 712.962C185.404 735.651 150.105 753.741 118.26 762.851C79.8497 773.837 48.8717 771.487 28.6736 756.046C9.64274 741.497 0.560046 715.798 1.67794 679.66C2.94627 638.667 17.4468 584.298 44.7663 518.08C70.6431 454.021 104.355 388.614 137.26 338.643C153.214 314.417 168.431 294.799 181.265 281.919C195.146 267.992 206.25 261.751 214.263 263.372C223.038 265.145 227.659 276.145 228.032 296.083C236.768 268.58 251.162 241.621 267.955 221.452C285.7 200.145 303.519 189.477 316.842 192.192C326.244 194.104 332.886 202.304 336.592 216.559C340.434 231.346 340.957 252.321 338.147 278.959C372.568 201.415 410.839 138.998 448.98 98.2296C484.02 60.7767 516.882 43.9743 541.51 50.9224C557.116 55.3238 568.659 69.3044 574.892 91.3556C581.344 114.175 582.153 144.574 577.296 181.752C602.175 147.994 628.863 119.29 652.66 100.727C679.166 80.0526 700.991 72.5876 715.784 79.1463C727.26 84.2354 734.263 97.5294 736.603 118.663C739.15 141.647 736.148 173.937 727.689 214.639C703.67 330.199 665.052 438.149 636.888 508.362C601.312 597.053 569.084 658.57 554.198 678.187C543.597 692.157 518.061 711.355 492.103 724.874C478.161 732.13 465.002 737.259 454.053 739.703C441.327 742.541 431.635 741.83 425.253 737.589C417.078 732.164 414.601 721.161 417.885 704.898C421.352 687.739 431.294 664.552 447.456 635.923C402.283 682.693 347.452 727.573 296.196 759.646C271.327 775.21 248.758 786.702 230.933 792.877C224.913 794.961 219.473 796.443 214.623 797.32L214.638 797.317ZM221.953 706.311L219.438 710.112C181.96 766.784 184.045 786.589 192.394 793.224C205.432 803.589 243.945 790.554 295.404 758.35C348.183 725.322 404.766 678.686 450.646 630.404L455.067 625.751L451.855 631.309C428.591 671.564 405.24 722.464 426.102 736.322C437.472 743.874 461.279 739.209 491.409 723.521C517.193 710.098 542.519 691.076 552.996 677.267C567.822 657.724 599.959 596.357 635.484 507.793C663.628 437.638 702.208 329.778 726.207 214.326C737.398 160.486 744.572 93.5661 715.178 80.5322C700.931 74.2147 679.641 81.6125 653.606 101.921C629.355 120.837 602.066 150.359 576.769 185.05L574.988 187.491L575.398 184.5C580.661 146.184 579.996 114.981 573.434 91.7671C567.352 70.2504 556.17 56.6331 541.1 52.386C517.043 45.6006 484.726 62.2505 450.096 99.2696C411.331 140.707 372.41 204.622 337.543 284.114L335.495 288.781L336.091 283.716C344.696 210.6 327.54 195.924 316.541 193.686C303.782 191.09 286.5 201.567 269.123 222.428C251.467 243.631 236.48 272.407 228.006 301.38L226.429 306.77L226.516 301.152C226.863 278.827 222.639 266.612 213.961 264.86C199.209 261.876 171.711 289.071 138.524 339.473C105.674 389.366 72.0136 454.675 46.1699 518.645C18.916 584.707 4.4607 638.891 3.19379 679.702C2.09014 715.319 10.9731 740.597 29.592 754.83C41.4706 763.911 62.7695 772.368 99.0059 765.815C104.881 764.753 111.149 763.294 117.832 761.386C150.735 751.972 187.367 732.911 218.33 709.085L221.942 706.303L221.953 706.311Z" fill="#212121"/>
<mask id="mask0_121_1572" style="mask-type:luminance" maskUnits="userSpaceOnUse" x="1" y="49" width="737" height="750">
<path d="M214.731 797.162C201.649 799.526 192.908 797.529 188.748 791.219C180.81 779.186 190.095 752.667 216.356 712.36C179.42 740.133 135.99 760.525 99.5222 767.117C63.1358 773.695 35.2865 766.513 18.9992 746.35C5.06963 729.108 -0.448538 702.578 2.59474 667.508C6.00799 628.198 20.2557 577.93 44.93 518.1C69.3517 457.612 101.319 394.887 132.63 346.004C148.032 321.956 162.39 302.567 175.298 288.367C188.877 273.435 200.152 265.069 208.814 263.504C212.99 262.749 216.554 263.593 219.408 266.014C224.848 270.628 227.694 281.029 227.89 296.955C236.015 270.946 248.996 245.778 264.688 225.694C265.555 224.581 266.464 223.446 267.469 222.22C281.547 205.118 295.952 194.501 308.032 192.318C315.071 191.045 321.125 192.627 326.027 197.018C337.043 206.888 341.561 230.869 339.09 266.372C339.001 267.65 338.906 268.948 338.799 270.264C338.551 273.329 338.247 276.543 337.892 279.86C339.416 276.415 340.874 273.171 342.309 270.018C342.794 268.945 343.285 267.871 343.776 266.801L344.072 266.152C350.731 251.653 357.576 237.613 364.411 224.417C374.986 203.982 385.945 184.763 396.981 167.304C397.563 166.381 398.142 165.468 398.73 164.554C411.919 143.907 425.37 125.519 438.711 109.901C468.213 75.3456 496.615 54.7674 520.845 50.3873C535.583 47.7232 548.043 51.1477 557.873 60.562C578.057 79.897 584.847 123.07 577.06 182.281C620.494 123.209 666.305 83.1878 696.936 77.6507C708.051 75.6414 717.066 78.0872 723.727 84.9205C731.725 93.1235 736.233 107.634 737.139 128.054C738.113 150.098 734.88 179.225 727.524 214.625C699.807 348.036 652.223 471.881 626.325 533.829C610.529 571.608 594.587 606.216 580.227 633.919C579.971 634.409 578.931 636.396 578.668 636.902C568.83 655.666 560.343 669.924 554.122 678.13C546.177 688.604 529.088 702.663 509.524 714.813C488.139 728.096 466.714 737.375 450.749 740.261C436.102 742.908 426.007 740.461 420.749 732.985C410.412 718.296 419.646 685.349 448.196 635.015C416.914 667.501 380.802 699.25 343.476 727.049C312.473 750.143 282.62 768.997 257.148 781.57C256.166 782.053 255.193 782.53 254.232 782.994C238.672 790.474 225.385 795.241 214.746 797.164L214.731 797.162Z" fill="white"/>
</mask>
<g mask="url(#mask0_121_1572)">
<mask id="mask1_121_1572" style="mask-type:luminance" maskUnits="userSpaceOnUse" x="522" y="-121" width="260" height="260">
<path d="M742 -120.597L522.559 -80.9359L562.333 138.47L781.773 98.8095L742 -120.597Z" fill="white"/>
</mask>
<g mask="url(#mask1_121_1572)">
<path d="M607.201 73.7065L497.482 93.5359L517.37 203.24L627.089 183.411L607.201 73.7065Z" fill="#C7E747"/>
<path d="M628.634 184.482L516.299 204.784L495.938 92.4649L608.272 72.1628L628.634 184.482ZM518.441 201.696L625.549 182.339L606.135 75.2446L499.026 94.6023L518.441 201.696Z" fill="#212121"/>
<path d="M697.08 -55.8272L587.361 -35.9977L607.249 73.7065L716.968 53.877L697.08 -55.8272Z" fill="#C7E747"/>
<path d="M718.513 54.9481L606.178 75.2502L585.816 -37.0688L698.151 -57.3709L718.513 54.9481ZM608.319 72.1627L715.428 52.8051L696.014 -54.2891L588.905 -34.9314L608.319 72.1627Z" fill="#212121"/>
</g>
<mask id="mask2_121_1572" style="mask-type:luminance" maskUnits="userSpaceOnUse" x="562" y="98" width="260" height="260">
<path d="M781.728 98.7645L562.288 138.426L602.061 357.832L821.502 318.171L781.728 98.7645Z" fill="white"/>
</mask>
<g mask="url(#mask2_121_1572)">
<path d="M646.93 293.068L537.21 312.897L557.098 422.601L666.818 402.772L646.93 293.068Z" fill="#C7E747"/>
<path d="M668.362 403.843L556.028 424.145L535.666 311.826L648.001 291.524L668.362 403.843ZM558.169 421.058L665.278 401.7L645.863 294.606L538.754 313.964L558.169 421.058Z" fill="#212121"/>
<path d="M736.809 163.534L627.089 183.364L646.977 293.068L756.696 273.238L736.809 163.534Z" fill="#C7E747"/>
<path d="M758.241 274.309L645.907 294.612L625.545 182.292L737.879 161.99L758.241 274.309ZM648.048 291.524L755.157 272.166L735.742 165.072L628.633 184.43L648.048 291.524Z" fill="#212121"/>
<path d="M607.201 73.7065L497.482 93.5359L517.37 203.24L627.089 183.411L607.201 73.7065Z" fill="#C7E747"/>
<path d="M628.634 184.482L516.299 204.784L495.938 92.4648L608.272 72.1627L628.634 184.482ZM518.441 201.696L625.549 182.339L606.135 75.2446L499.026 94.6023L518.441 201.696Z" fill="#212121"/>
</g>
<mask id="mask3_121_1572" style="mask-type:luminance" maskUnits="userSpaceOnUse" x="602" y="318" width="260" height="260">
<path d="M821.458 318.131L602.017 357.792L641.791 577.198L861.231 537.537L821.458 318.131Z" fill="white"/>
</mask>
<g mask="url(#mask3_121_1572)">
<path d="M686.658 512.429L576.939 532.259L596.827 641.963L706.546 622.133L686.658 512.429Z" fill="#C7E747"/>
<path d="M708.091 623.204L595.756 643.507L575.395 531.188L687.729 510.885L708.091 623.204ZM597.898 640.424L705.007 621.066L685.593 513.972L578.484 533.33L597.898 640.424Z" fill="#212121"/>
<path d="M646.93 293.068L537.21 312.897L557.098 422.602L666.818 402.772L646.93 293.068Z" fill="#C7E747"/>
<path d="M668.362 403.843L556.028 424.145L535.666 311.826L648.001 291.524L668.362 403.843ZM558.169 421.058L665.278 401.7L645.863 294.606L538.754 313.964L558.169 421.058Z" fill="#212121"/>
</g>
<mask id="mask4_121_1572" style="mask-type:luminance" maskUnits="userSpaceOnUse" x="641" y="537" width="260" height="260">
<path d="M861.186 537.492L641.746 577.153L681.519 796.559L900.96 756.898L861.186 537.492Z" fill="white"/>
</mask>
<g mask="url(#mask4_121_1572)">
<path d="M726.387 731.79L616.668 751.62L636.556 861.324L746.275 841.495L726.387 731.79Z" fill="#C7E747"/>
<path d="M747.82 842.566L635.485 862.868L615.124 750.554L727.459 730.252L747.82 842.566ZM637.627 859.785L744.736 840.427L725.321 733.333L618.212 752.691L637.627 859.785Z" fill="#212121"/>
<path d="M686.658 512.429L576.939 532.259L596.827 641.963L706.546 622.133L686.658 512.429Z" fill="#C7E747"/>
<path d="M708.091 623.204L595.756 643.507L575.395 531.187L687.729 510.885L708.091 623.204ZM597.898 640.424L705.007 621.066L685.593 513.972L578.484 533.33L597.898 640.424Z" fill="#212121"/>
</g>
<mask id="mask5_121_1572" style="mask-type:luminance" maskUnits="userSpaceOnUse" x="303" y="-81" width="260" height="260">
<path d="M522.514 -80.8908L303.074 -41.2298L342.847 178.177L562.288 138.516L522.514 -80.8908Z" fill="white"/>
</mask>
<g mask="url(#mask5_121_1572)">
<path d="M607.201 73.7065L497.482 93.5359L517.37 203.24L627.089 183.411L607.201 73.7065Z" fill="#C7E747"/>
<path d="M628.634 184.482L516.299 204.784L495.938 92.4649L608.272 72.1628L628.634 184.482ZM518.441 201.696L625.549 182.339L606.135 75.2446L499.026 94.6023L518.441 201.696Z" fill="#212121"/>
<path d="M387.716 113.413L277.997 133.242L297.884 242.946L407.604 223.117L387.716 113.413Z" fill="#C7E747"/>
<path d="M409.148 224.188L296.818 244.489L276.457 132.17L388.786 111.869L409.148 224.188ZM298.955 241.402L406.064 222.045L386.649 114.951L279.54 134.308L298.955 241.402Z" fill="#212121"/>
<path d="M477.594 -16.1212L367.875 3.70828L387.763 113.412L497.482 93.583L477.594 -16.1212Z" fill="#C7E747"/>
<path d="M499.027 94.6541L386.692 114.956L366.331 2.63718L478.665 -17.6649L499.027 94.6541ZM388.834 111.869L495.942 92.5111L476.528 -14.5831L369.419 4.77461L388.834 111.869Z" fill="#212121"/>
</g>
<mask id="mask6_121_1572" style="mask-type:luminance" maskUnits="userSpaceOnUse" x="342" y="138" width="261" height="260">
<path d="M562.242 138.471L342.802 178.132L382.575 397.538L602.016 357.877L562.242 138.471Z" fill="white"/>
</mask>
<g mask="url(#mask6_121_1572)">
<path d="M646.929 293.068L537.21 312.897L557.098 422.602L666.817 402.772L646.929 293.068Z" fill="#C7E747"/>
<path d="M668.362 403.843L556.027 424.145L535.666 311.826L648 291.524L668.362 403.843ZM558.169 421.058L665.277 401.7L645.863 294.606L538.754 313.964L558.169 421.058Z" fill="#212121"/>
<path d="M427.444 332.774L317.725 352.603L337.612 462.307L447.332 442.478L427.444 332.774Z" fill="#C7E747"/>
<path d="M448.876 443.549L336.546 463.85L316.185 351.531L428.514 331.23L448.876 443.549ZM338.683 460.764L445.792 441.406L426.377 334.312L319.268 353.67L338.683 460.764Z" fill="#212121"/>
<path d="M517.322 203.24L407.603 223.07L427.491 332.774L537.21 312.944L517.322 203.24Z" fill="#C7E747"/>
<path d="M538.755 314.015L426.42 334.318L406.059 221.999L518.393 201.696L538.755 314.015ZM428.562 331.23L535.67 311.872L516.256 204.778L409.147 224.136L428.562 331.23Z" fill="#212121"/>
<path d="M607.201 73.7065L497.481 93.536L517.369 203.24L627.089 183.411L607.201 73.7065Z" fill="#C7E747"/>
<path d="M628.633 184.482L516.299 204.784L495.937 92.4649L608.272 72.1628L628.633 184.482ZM518.44 201.696L625.549 182.339L606.134 75.2446L499.025 94.6023L518.44 201.696Z" fill="#212121"/>
<path d="M387.715 113.412L277.996 133.242L297.884 242.946L407.603 223.117L387.715 113.412Z" fill="#C7E747"/>
<path d="M409.148 224.188L296.818 244.489L276.456 132.17L388.786 111.869L409.148 224.188ZM298.954 241.402L406.063 222.045L386.649 114.951L279.54 134.308L298.954 241.402Z" fill="#212121"/>
</g>
<mask id="mask7_121_1572" style="mask-type:luminance" maskUnits="userSpaceOnUse" x="382" y="357" width="260" height="260">
<path d="M601.972 357.837L382.531 397.498L422.305 616.904L641.746 577.243L601.972 357.837Z" fill="white"/>
</mask>
<g mask="url(#mask7_121_1572)">
<path d="M686.658 512.429L576.939 532.259L596.827 641.963L706.546 622.133L686.658 512.429Z" fill="#C7E747"/>
<path d="M708.091 623.204L595.756 643.507L575.395 531.188L687.729 510.885L708.091 623.204ZM597.898 640.424L705.007 621.066L685.593 513.972L578.484 533.33L597.898 640.424Z" fill="#212121"/>
<path d="M467.173 552.135L357.454 571.965L377.341 681.669L487.061 661.839L467.173 552.135Z" fill="#C7E747"/>
<path d="M488.605 662.91L376.275 683.212L355.914 570.893L468.243 550.591L488.605 662.91ZM378.413 680.13L485.522 660.772L466.107 553.678L358.998 573.036L378.413 680.13Z" fill="#212121"/>
<path d="M557.052 422.602L447.333 442.431L467.22 552.135L576.94 532.306L557.052 422.602Z" fill="#C7E747"/>
<path d="M578.484 533.377L466.15 553.679L445.789 441.365L558.123 421.063L578.484 533.377ZM468.292 550.596L575.4 531.239L555.986 424.144L448.877 443.502L468.292 550.596Z" fill="#212121"/>
<path d="M646.93 293.068L537.21 312.897L557.098 422.602L666.818 402.772L646.93 293.068Z" fill="#C7E747"/>
<path d="M668.362 403.843L556.028 424.145L535.666 311.826L648.001 291.524L668.362 403.843ZM558.169 421.058L665.278 401.7L645.863 294.606L538.754 313.964L558.169 421.058Z" fill="#212121"/>
<path d="M427.444 332.774L317.725 352.603L337.613 462.308L447.332 442.478L427.444 332.774Z" fill="#C7E747"/>
<path d="M448.877 443.549L336.547 463.85L316.185 351.531L428.515 331.23L448.877 443.549ZM338.683 460.764L445.792 441.406L426.378 334.312L319.269 353.67L338.683 460.764Z" fill="#212121"/>
</g>
<mask id="mask8_121_1572" style="mask-type:luminance" maskUnits="userSpaceOnUse" x="422" y="577" width="260" height="260">
<path d="M641.7 577.198L422.26 616.859L462.033 836.265L681.474 796.604L641.7 577.198Z" fill="white"/>
</mask>
<g mask="url(#mask8_121_1572)">
<path d="M726.387 731.79L616.668 751.62L636.556 861.324L746.275 841.495L726.387 731.79Z" fill="#C7E747"/>
<path d="M747.82 842.566L635.485 862.868L615.124 750.554L727.459 730.252L747.82 842.566ZM637.627 859.785L744.736 840.427L725.321 733.333L618.212 752.691L637.627 859.785Z" fill="#212121"/>
<path d="M506.901 771.496L397.182 791.326L417.07 901.03L526.789 881.201L506.901 771.496Z" fill="#C7E747"/>
<path d="M528.334 882.272L416.004 902.573L395.643 790.259L507.973 769.958L528.334 882.272ZM418.141 899.491L525.25 880.133L505.836 773.039L398.727 792.397L418.141 899.491Z" fill="#212121"/>
<path d="M596.78 641.963L487.061 661.792L506.949 771.496L616.668 751.667L596.78 641.963Z" fill="#C7E747"/>
<path d="M618.213 752.738L505.878 773.04L485.517 660.726L597.852 640.424L618.213 752.738ZM508.02 769.958L615.129 750.6L595.714 643.506L488.605 662.863L508.02 769.958Z" fill="#212121"/>
<path d="M686.658 512.429L576.939 532.259L596.827 641.963L706.546 622.133L686.658 512.429Z" fill="#C7E747"/>
<path d="M708.091 623.204L595.756 643.507L575.395 531.187L687.729 510.885L708.091 623.204ZM597.898 640.424L705.007 621.066L685.593 513.972L578.484 533.33L597.898 640.424Z" fill="#212121"/>
<path d="M467.173 552.135L357.454 571.965L377.341 681.669L487.061 661.839L467.173 552.135Z" fill="#C7E747"/>
<path d="M488.605 662.91L376.275 683.212L355.914 570.893L468.243 550.591L488.605 662.91ZM378.413 680.13L485.522 660.772L466.107 553.678L358.998 573.036L378.413 680.13Z" fill="#212121"/>
</g>
<mask id="mask9_121_1572" style="mask-type:luminance" maskUnits="userSpaceOnUse" x="83" y="-42" width="260" height="260">
<path d="M303.024 -41.184L83.583 -1.52298L123.357 217.883L342.797 178.222L303.024 -41.184Z" fill="white"/>
</mask>
<g mask="url(#mask9_121_1572)">
<path d="M387.716 113.412L277.997 133.242L297.884 242.946L407.604 223.117L387.716 113.412Z" fill="#C7E747"/>
<path d="M409.148 224.188L296.818 244.489L276.457 132.17L388.786 111.869L409.148 224.188ZM298.955 241.402L406.064 222.045L386.649 114.951L279.54 134.308L298.955 241.402Z" fill="#212121"/>
<path d="M168.23 153.118L58.5103 172.948L78.3981 282.652L188.117 262.823L168.23 153.118Z" fill="#C7E747"/>
<path d="M189.662 263.894L77.3277 284.196L56.9658 171.877L169.3 151.575L189.662 263.894ZM79.4688 281.108L186.578 261.751L167.163 154.657L60.0542 174.014L79.4688 281.108Z" fill="#212121"/>
<path d="M258.108 23.5848L148.389 43.4143L168.277 153.118L277.996 133.289L258.108 23.5848Z" fill="#C7E747"/>
<path d="M279.541 134.36L167.207 154.662L146.845 42.3432L259.179 22.0411L279.541 134.36ZM169.348 151.575L276.457 132.217L257.042 25.1229L149.933 44.4806L169.348 151.575Z" fill="#212121"/>
<path d="M128.501 -66.2428L18.7817 -46.4134L38.6696 63.2908L148.389 43.4613L128.501 -66.2428Z" fill="#C7E747"/>
<path d="M149.934 44.5324L37.5992 64.8345L17.2373 -47.4845L129.572 -67.7866L149.934 44.5324ZM39.7403 61.7471L146.849 42.3894L127.435 -64.7047L20.3257 -45.3471L39.7403 61.7471Z" fill="#212121"/>
</g>
<mask id="mask10_121_1572" style="mask-type:luminance" maskUnits="userSpaceOnUse" x="123" y="178" width="260" height="260">
<path d="M342.752 178.177L123.312 217.838L163.085 437.245L382.526 397.584L342.752 178.177Z" fill="white"/>
</mask>
<g mask="url(#mask10_121_1572)">
<path d="M427.444 332.774L317.725 352.603L337.613 462.307L447.332 442.478L427.444 332.774Z" fill="#C7E747"/>
<path d="M448.877 443.549L336.547 463.85L316.185 351.531L428.515 331.23L448.877 443.549ZM338.683 460.764L445.792 441.406L426.378 334.312L319.269 353.67L338.683 460.764Z" fill="#212121"/>
<path d="M207.958 372.48L98.2388 392.309L118.127 502.013L227.846 482.184L207.958 372.48Z" fill="#C7E747"/>
<path d="M229.391 483.255L117.056 503.557L96.6943 391.238L209.029 370.936L229.391 483.255ZM119.197 500.47L226.306 481.112L206.892 374.018L99.7827 393.376L119.197 500.47Z" fill="#212121"/>
<path d="M297.837 242.946L188.118 262.776L208.005 372.48L317.725 352.65L297.837 242.946Z" fill="#C7E747"/>
<path d="M319.27 353.721L206.935 374.024L186.573 261.704L298.908 241.402L319.27 353.721ZM209.076 370.936L316.185 351.578L296.771 244.484L189.662 263.842L209.076 370.936Z" fill="#212121"/>
<path d="M387.716 113.412L277.997 133.242L297.884 242.946L407.604 223.117L387.716 113.412Z" fill="#C7E747"/>
<path d="M409.148 224.188L296.818 244.489L276.457 132.17L388.786 111.869L409.148 224.188ZM298.955 241.402L406.064 222.045L386.649 114.951L279.54 134.308L298.955 241.402Z" fill="#212121"/>
<path d="M168.23 153.118L58.5103 172.948L78.3981 282.652L188.117 262.823L168.23 153.118Z" fill="#C7E747"/>
<path d="M189.662 263.894L77.3277 284.196L56.9658 171.877L169.3 151.575L189.662 263.894ZM79.4688 281.108L186.578 261.751L167.163 154.657L60.0542 174.014L79.4688 281.108Z" fill="#212121"/>
</g>
<mask id="mask11_121_1572" style="mask-type:luminance" maskUnits="userSpaceOnUse" x="163" y="397" width="260" height="260">
<path d="M382.482 397.543L163.041 437.204L202.815 656.611L422.255 616.95L382.482 397.543Z" fill="white"/>
</mask>
<g mask="url(#mask11_121_1572)">
<path d="M467.173 552.135L357.454 571.965L377.342 681.669L487.061 661.839L467.173 552.135Z" fill="#C7E747"/>
<path d="M488.606 662.91L376.276 683.212L355.914 570.893L468.244 550.591L488.606 662.91ZM378.413 680.13L485.522 660.772L466.107 553.678L358.999 573.036L378.413 680.13Z" fill="#212121"/>
<path d="M247.687 591.841L137.968 611.671L157.856 721.375L267.575 701.545L247.687 591.841Z" fill="#C7E747"/>
<path d="M269.12 702.616L156.785 722.919L136.423 610.599L248.758 590.297L269.12 702.616ZM158.927 719.836L266.036 700.478L246.621 593.384L139.513 612.742L158.927 719.836Z" fill="#212121"/>
<path d="M337.566 462.307L227.847 482.137L247.734 591.841L357.454 572.012L337.566 462.307Z" fill="#C7E747"/>
<path d="M358.998 573.083L246.664 593.385L226.303 481.071L338.637 460.769L358.998 573.083ZM248.806 590.302L355.915 570.944L336.5 463.85L229.391 483.208L248.806 590.302Z" fill="#212121"/>
<path d="M427.445 332.774L317.726 352.603L337.613 462.307L447.333 442.478L427.445 332.774Z" fill="#C7E747"/>
<path d="M448.877 443.549L336.547 463.85L316.186 351.531L428.515 331.23L448.877 443.549ZM338.684 460.764L445.793 441.406L426.378 334.312L319.269 353.67L338.684 460.764Z" fill="#212121"/>
<path d="M207.959 372.48L98.2393 392.309L118.127 502.013L227.846 482.184L207.959 372.48Z" fill="#C7E747"/>
<path d="M229.391 483.255L117.057 503.557L96.6948 391.238L209.029 370.936L229.391 483.255ZM119.198 500.47L226.307 481.112L206.892 374.018L99.7832 393.376L119.198 500.47Z" fill="#212121"/>
</g>
<mask id="mask12_121_1572" style="mask-type:luminance" maskUnits="userSpaceOnUse" x="202" y="616" width="260" height="260">
<path d="M422.21 616.905L202.77 656.566L242.543 875.972L461.984 836.311L422.21 616.905Z" fill="white"/>
</mask>
<g mask="url(#mask12_121_1572)">
<path d="M506.902 771.496L397.183 791.326L417.07 901.03L526.79 881.201L506.902 771.496Z" fill="#C7E747"/>
<path d="M528.334 882.272L416.005 902.573L395.644 790.259L507.973 769.958L528.334 882.272ZM418.142 899.491L525.251 880.133L505.836 773.039L398.727 792.397L418.142 899.491Z" fill="#212121"/>
<path d="M377.295 681.669L267.575 701.498L287.463 811.202L397.182 791.373L377.295 681.669Z" fill="#C7E747"/>
<path d="M398.727 792.444L286.392 812.746L266.031 700.432L378.366 680.13L398.727 792.444ZM288.534 809.663L395.643 790.306L376.229 683.212L269.12 702.569L288.534 809.663Z" fill="#212121"/>
<path d="M467.173 552.135L357.454 571.965L377.342 681.669L487.061 661.839L467.173 552.135Z" fill="#C7E747"/>
<path d="M488.606 662.91L376.276 683.212L355.914 570.893L468.244 550.591L488.606 662.91ZM378.413 680.13L485.522 660.772L466.107 553.678L358.999 573.036L378.413 680.13Z" fill="#212121"/>
<path d="M247.687 591.841L137.968 611.671L157.856 721.375L267.575 701.545L247.687 591.841Z" fill="#C7E747"/>
<path d="M269.12 702.616L156.785 722.919L136.423 610.599L248.758 590.297L269.12 702.616ZM158.927 719.836L266.036 700.478L246.621 593.384L139.513 612.742L158.927 719.836Z" fill="#212121"/>
</g>
<mask id="mask13_121_1572" style="mask-type:luminance" maskUnits="userSpaceOnUse" x="-136" y="-2" width="260" height="260">
<path d="M83.5378 -1.47798L-135.903 38.183L-96.1293 257.589L123.311 217.928L83.5378 -1.47798Z" fill="white"/>
</mask>
<g mask="url(#mask13_121_1572)">
<path d="M168.23 153.119L58.5107 172.948L78.3986 282.652L188.118 262.823L168.23 153.119Z" fill="#C7E747"/>
<path d="M189.663 263.894L77.3282 284.196L56.9663 171.877L169.301 151.575L189.663 263.894ZM79.4693 281.108L186.578 261.751L167.164 154.657L60.0547 174.014L79.4693 281.108Z" fill="#212121"/>
<path d="M38.6231 63.2908L-71.0962 83.1203L-51.2084 192.824L58.5109 172.995L38.6231 63.2908Z" fill="#C7E747"/>
<path d="M60.0553 174.066L-52.2744 194.367L-72.6362 82.0483L39.6935 61.7471L60.0553 174.066ZM-50.138 191.281L56.9709 171.923L37.5562 64.8289L-69.5526 84.1866L-50.138 191.281Z" fill="#212121"/>
<path d="M128.502 -66.2428L18.7822 -46.4134L38.67 63.2908L148.389 43.4613L128.502 -66.2428Z" fill="#C7E747"/>
<path d="M149.934 44.5324L37.5996 64.8345L17.2378 -47.4845L129.572 -67.7866L149.934 44.5324ZM39.7408 61.7471L146.85 42.3894L127.435 -64.7047L20.3262 -45.3471L39.7408 61.7471Z" fill="#212121"/>
</g>
<mask id="mask14_121_1572" style="mask-type:luminance" maskUnits="userSpaceOnUse" x="-97" y="217" width="261" height="260">
<path d="M123.266 217.883L-96.1743 257.544L-56.4008 476.951L163.04 437.29L123.266 217.883Z" fill="white"/>
</mask>
<g mask="url(#mask14_121_1572)">
<path d="M207.958 372.48L98.2388 392.309L118.127 502.013L227.846 482.184L207.958 372.48Z" fill="#C7E747"/>
<path d="M229.391 483.255L117.056 503.557L96.6943 391.238L209.029 370.936L229.391 483.255ZM119.197 500.47L226.306 481.112L206.892 374.018L99.7827 393.376L119.197 500.47Z" fill="#212121"/>
<path d="M-11.5278 412.186L-121.247 432.015L-101.359 541.719L8.36004 521.89L-11.5278 412.186Z" fill="#C7E747"/>
<path d="M9.90485 522.961L-102.43 543.263L-122.792 430.944L-10.457 410.642L9.90485 522.961ZM-100.293 540.177L6.81562 520.819L-12.599 413.725L-119.708 433.082L-100.293 540.177Z" fill="#212121"/>
<path d="M78.3511 282.652L-31.3682 302.482L-11.4803 412.186L98.239 392.356L78.3511 282.652Z" fill="#C7E747"/>
<path d="M99.7834 393.427L-12.5464 413.729L-32.9082 301.41L79.4215 281.108L99.7834 393.427ZM-10.41 410.642L96.6989 391.284L77.2843 284.19L-29.8246 303.548L-10.41 410.642Z" fill="#212121"/>
<path d="M168.23 153.118L58.5103 172.948L78.3981 282.652L188.117 262.823L168.23 153.118Z" fill="#C7E747"/>
<path d="M189.662 263.894L77.3277 284.196L56.9658 171.877L169.3 151.575L189.662 263.894ZM79.4688 281.108L186.578 261.751L167.163 154.657L60.0542 174.014L79.4688 281.108Z" fill="#212121"/>
</g>
<mask id="mask15_121_1572" style="mask-type:luminance" maskUnits="userSpaceOnUse" x="-57" y="437" width="260" height="260">
<path d="M162.996 437.249L-56.4448 476.91L-16.6713 696.317L202.769 656.656L162.996 437.249Z" fill="white"/>
</mask>
<g mask="url(#mask15_121_1572)">
<path d="M247.687 591.841L137.968 611.671L157.856 721.375L267.575 701.545L247.687 591.841Z" fill="#C7E747"/>
<path d="M269.12 702.616L156.785 722.919L136.423 610.599L248.758 590.297L269.12 702.616ZM158.927 719.836L266.036 700.478L246.621 593.384L139.513 612.742L158.927 719.836Z" fill="#212121"/>
<path d="M28.2012 631.547L-81.5181 651.377L-61.6302 761.081L48.089 741.251L28.2012 631.547Z" fill="#C7E747"/>
<path d="M49.6339 742.322L-62.7006 762.625L-83.0625 650.305L29.272 630.003L49.6339 742.322ZM-60.5634 759.543L46.5455 740.185L27.1308 633.091L-79.978 652.449L-60.5634 759.543Z" fill="#212121"/>
<path d="M118.08 502.013L8.36084 521.843L28.2486 631.547L137.968 611.718L118.08 502.013Z" fill="#C7E747"/>
<path d="M139.512 612.789L27.1828 633.09L6.82178 520.776L119.152 500.475L139.512 612.789ZM29.32 630.008L136.429 610.65L117.014 503.556L9.90538 522.914L29.32 630.008Z" fill="#212121"/>
<path d="M207.959 372.48L98.2393 392.309L118.127 502.013L227.846 482.184L207.959 372.48Z" fill="#C7E747"/>
<path d="M229.391 483.255L117.057 503.557L96.6948 391.238L209.029 370.936L229.391 483.255ZM119.198 500.47L226.307 481.112L206.892 374.018L99.7832 393.376L119.198 500.47Z" fill="#212121"/>
<path d="M-11.5273 412.186L-121.247 432.015L-101.359 541.719L8.36053 521.89L-11.5273 412.186Z" fill="#C7E747"/>
<path d="M9.90534 522.961L-102.429 543.263L-122.791 430.944L-10.4565 410.642L9.90534 522.961ZM-100.293 540.177L6.8161 520.819L-12.5985 413.725L-119.707 433.082L-100.293 540.177Z" fill="#212121"/>
</g>
<mask id="mask16_121_1572" style="mask-type:luminance" maskUnits="userSpaceOnUse" x="-17" y="656" width="260" height="260">
<path d="M202.724 656.611L-16.7163 696.272L23.0572 915.678L242.498 876.017L202.724 656.611Z" fill="white"/>
</mask>
<g mask="url(#mask16_121_1572)">
<path d="M157.809 721.375L48.0894 741.204L67.9772 850.908L177.696 831.079L157.809 721.375Z" fill="#C7E747"/>
<path d="M179.241 832.15L66.9113 852.451L46.5503 740.137L158.88 719.836L179.241 832.15ZM69.0485 849.369L176.157 830.012L156.743 722.918L49.6339 742.275L69.0485 849.369Z" fill="#212121"/>
<path d="M247.687 591.841L137.968 611.671L157.856 721.375L267.575 701.545L247.687 591.841Z" fill="#C7E747"/>
<path d="M269.12 702.616L156.785 722.919L136.423 610.599L248.758 590.297L269.12 702.616ZM158.927 719.836L266.036 700.478L246.621 593.384L139.513 612.742L158.927 719.836Z" fill="#212121"/>
<path d="M28.2012 631.547L-81.5181 651.377L-61.6302 761.081L48.089 741.251L28.2012 631.547Z" fill="#C7E747"/>
<path d="M49.6339 742.322L-62.7006 762.625L-83.0625 650.305L29.272 630.003L49.6339 742.322ZM-60.5634 759.543L46.5455 740.185L27.1308 633.091L-79.978 652.449L-60.5634 759.543Z" fill="#212121"/>
</g>
</g>
<path d="M520.995 51.0058C564.147 43.2022 589.281 88.9852 576.154 184.595C617.573 127.801 664.666 84.1185 697.088 78.2504C731.243 72.0738 749.112 107.852 726.949 214.477C703.119 329.12 662.662 445.282 625.748 533.555C609.025 573.534 593.04 607.793 579.658 633.593C579.13 634.6 578.615 635.595 578.098 636.575C568.137 655.573 559.699 669.673 553.6 677.719C537.508 698.924 485.526 733.302 450.592 739.619C415.659 745.936 397.498 723.839 451.194 630.926C417.652 666.226 379.616 699.303 343.058 726.53C312.034 749.637 282.066 768.533 256.818 780.992C255.836 781.476 254.867 781.951 253.905 782.411C238.716 789.716 225.328 794.59 214.575 796.535C180.348 802.725 172.837 779.2 218.799 709.685C183.773 736.635 139.05 759.328 99.3624 766.505C18.031 781.213 -42.1696 730.778 45.4711 518.352C96.3758 392.324 173.872 270.474 208.935 264.133C220.729 262.001 227.712 272.928 227.277 301.162C235.651 272.512 249.763 245.841 265.188 226.096C266.104 224.921 267.033 223.762 267.962 222.633C281.538 206.15 295.912 195.159 308.165 192.944C328.144 189.331 342.483 209.054 338.493 266.341C338.404 267.619 338.309 268.912 338.201 270.223C337.854 274.538 337.398 279.07 336.841 283.802C338.852 279.23 340.86 274.723 342.88 270.283C343.464 268.99 344.054 267.706 344.645 266.421C351.384 251.761 358.166 237.851 364.974 224.716C375.815 203.77 386.713 184.751 397.525 167.649C398.107 166.725 398.686 165.813 399.271 164.904C412.796 143.734 426.189 125.559 439.207 110.32C469.565 74.7731 497.866 55.1933 520.991 51.0114M520.776 49.7987C508.868 51.9523 495.853 58.0407 482.097 67.8997C467.935 78.0488 453.19 92.0532 438.273 109.518C424.914 125.159 411.441 143.57 398.233 164.239C397.65 165.152 397.066 166.066 396.484 166.989C385.439 184.464 374.466 203.699 363.881 224.15C357.041 237.355 350.191 251.405 343.527 265.909L343.213 266.596C342.728 267.65 342.245 268.713 341.763 269.776C340.828 271.827 339.882 273.925 338.914 276.09C339.109 274.119 339.277 272.191 339.431 270.321C339.541 268.97 339.64 267.661 339.721 266.425C341.012 247.921 340.433 232.509 338.014 220.623C335.748 209.508 331.862 201.415 326.46 196.578C321.412 192.056 315.181 190.423 307.945 191.732C295.721 193.942 281.185 204.637 267.012 221.849C265.998 223.082 265.085 224.223 264.217 225.336C256.266 235.51 248.957 247.08 242.493 259.725C236.91 270.644 232.19 281.919 228.418 293.342C227.848 279.26 224.965 269.931 219.817 265.565C216.817 263.018 213.082 262.132 208.715 262.922C199.918 264.512 188.526 272.944 174.85 287.977C161.914 302.201 147.534 321.618 132.109 345.694C100.772 394.603 68.779 457.364 44.3321 517.888C19.6296 577.763 5.36271 628.089 1.93666 667.458C-1.12946 702.691 4.43229 729.362 18.468 746.731C34.9068 767.079 62.9573 774.33 99.585 767.706C136.213 761.082 177.541 741.66 213.955 714.863C188.966 753.789 180.303 779.569 188.193 791.53C192.502 798.063 201.452 800.15 214.797 797.737C225.489 795.803 238.828 791.016 254.44 783.512C255.502 783.004 256.561 782.483 257.361 782.087C282.867 769.497 312.756 750.625 343.792 727.506C379.842 700.661 414.761 670.133 445.298 638.812C418.451 687.042 410.005 718.809 420.201 733.294C425.61 740.978 435.908 743.511 450.814 740.816C466.856 737.915 488.362 728.605 509.811 715.281C529.434 703.09 546.589 688.975 554.58 678.448C560.823 670.214 569.335 655.928 579.19 637.132C579.461 636.614 579.736 636.092 580.01 635.564C580.255 635.096 580.5 634.623 580.749 634.149C595.124 606.43 611.078 571.808 626.886 534.014C652.797 472.048 700.413 348.166 728.155 214.713C735.526 179.268 738.768 150.093 737.791 127.998C736.884 107.427 732.313 92.7821 724.211 84.4665C717.4 77.4794 708.202 74.9791 696.876 77.0273C681.116 79.8774 661.166 91.763 639.178 111.393C619.177 129.251 598.091 152.906 578.002 179.993C581.657 151.03 581.83 126.026 578.507 105.622C575.157 85.0352 568.37 69.7213 558.338 60.1138C553.394 55.3761 547.683 52.0973 541.361 50.368C535.074 48.6469 528.147 48.4461 520.773 49.7796L520.776 49.7987Z" fill="#212121"/>
<path d="M604.227 813.719C376.926 676.623 478.606 588.595 530.165 622.799C433.979 487.57 482.718 318.858 558.195 426.212C509.765 268.988 591.241 207.431 676.706 444.926C762.172 682.422 749.915 901.59 604.227 813.719Z" fill="#212121"/>
<path d="M603.764 834.243C388.044 679.566 496.389 599.873 545.075 638.059C459.917 495.635 521.886 331.319 588.615 444.316C552.803 283.751 638.912 228.847 705.27 472.365C771.628 715.884 742.028 933.387 603.765 834.25L603.764 834.243Z" fill="#E78147" stroke="#212121" stroke-width="4" stroke-miterlimit="10"/>
<path d="M593.538 394.154C592.327 368.221 592.156 332.744 610.702 317.359" stroke="#212121" stroke-width="17.13" stroke-miterlimit="10" stroke-linecap="round"/>
<path d="M593.538 394.154C592.327 368.221 592.156 332.744 610.702 317.359" stroke="#FFFEE9" stroke-width="12.85" stroke-miterlimit="10" stroke-linecap="round"/>
<path d="M543.337 596.861C530.349 569.265 524.592 544.867 521.82 527.697C520.897 521.997 515.888 489.554 522.66 459.075C525.638 445.671 530.251 435.545 537.903 427.114C541.162 423.528 544.3 420.983 546.499 419.368" stroke="#212121" stroke-width="17.13" stroke-miterlimit="10" stroke-linecap="round"/>
<path d="M543.337 596.861C530.349 569.265 524.592 544.867 521.82 527.697C520.897 521.997 515.888 489.554 522.66 459.075C525.638 445.671 530.251 435.545 537.903 427.114C541.162 423.528 544.3 420.983 546.499 419.368" stroke="#FFFEE9" stroke-width="12.85" stroke-miterlimit="10" stroke-linecap="round"/>
<path d="M725.095 1058.04L141.297 1014.1L405.861 319.178L422.277 276.037L425.837 266.685L435.34 241.744L437.584 235.839L492.364 250.812L548.772 244.208L550.227 250.923L555.179 273.801L556.052 277.851L557.873 286.248L725.095 1058.04Z" fill="#212121"/>
<path d="M498.231 282.33C558.69 282.33 607.701 233.346 607.701 172.921C607.701 112.497 558.69 63.5129 498.231 63.5129C437.772 63.5129 388.76 112.497 388.76 172.921C388.76 233.346 437.772 282.33 498.231 282.33Z" fill="#212121"/>
<path d="M762.553 1038.83H177.106L388.698 326.017L401.837 281.769L414.076 240.525L469.826 251.345L525.576 240.525L534.192 269.558L537.815 281.769L762.553 1038.83Z" fill="#E78147" stroke="#212121" stroke-width="3.14" stroke-miterlimit="10"/>
<path d="M404.913 271.399C433.622 291.142 510.144 313.079 544.249 303.429C529.226 246.797 515.491 200.867 515.491 200.867L420.351 246.582L410.274 253.318L404.906 271.392L404.913 271.399Z" fill="#212121"/>
<path d="M469.826 274.196C530.285 274.196 579.296 225.212 579.296 164.788C579.296 104.363 530.285 55.3791 469.826 55.3791C409.367 55.3791 360.355 104.363 360.355 164.788C360.355 225.212 409.367 274.196 469.826 274.196Z" fill="#E78147" stroke="#212121" stroke-width="3.14" stroke-miterlimit="10"/>
<path d="M377.948 174.493C375.226 174.493 372.92 172.402 372.705 169.64C371.867 159 371.936 131.512 390.651 106.058C412.788 75.9386 445.563 69.5423 455.08 68.2963C457.975 67.9156 460.607 69.9508 460.988 72.8305C461.362 75.7171 459.332 78.3545 456.451 78.7353C447.98 79.8428 418.807 85.5331 399.143 112.288C382.527 134.897 382.464 159.353 383.212 168.816C383.441 171.717 381.273 174.25 378.371 174.479C378.232 174.493 378.094 174.493 377.955 174.493H377.948Z" fill="#FFFEE9" stroke="#212121" stroke-width="2.54" stroke-miterlimit="10" stroke-linecap="round"/>
<path d="M424.243 292.402C408.735 342.838 393.22 393.268 377.712 443.704L424.243 292.402Z" fill="#FFFEE9"/>
<path d="M424.243 292.402C408.735 342.838 393.22 393.268 377.712 443.704" stroke="#212121" stroke-width="2.54" stroke-miterlimit="10" stroke-linecap="round"/>
<path d="M377.713 448.972C377.2 448.972 376.681 448.896 376.161 448.737C373.384 447.886 371.818 444.937 372.67 442.161L419.201 290.858C420.053 288.075 423.004 286.518 425.781 287.369C428.559 288.221 430.124 291.17 429.272 293.945L382.741 445.248C382.042 447.512 379.957 448.965 377.706 448.965L377.713 448.972Z" fill="#FFFEE9" stroke="#212121" stroke-width="2.54" stroke-miterlimit="10" stroke-linecap="round"/>
<path d="M552.595 1203.72L-32.249 1230.14L146.928 508.498L158.051 463.703L168.42 421.954L224.599 430.247L279.809 416.929L289.728 445.539L293.897 457.57L552.595 1203.72Z" fill="#212121"/>
<path d="M160.663 453.209C190.231 471.636 267.674 490.098 301.301 478.919C283.736 423.02 267.944 377.755 267.944 377.755L174.966 427.721L165.199 434.906L160.656 453.202L160.663 453.209Z" fill="#212121"/>
<path d="M220.693 453.181C281.152 453.181 330.163 404.197 330.163 343.773C330.163 283.348 281.152 234.364 220.693 234.364C160.234 234.364 111.223 283.348 111.223 343.773C111.223 404.197 160.234 453.181 220.693 453.181Z" fill="#212121"/>
<path d="M540.426 1213.97H-45.021L166.571 501.153L179.71 456.905L191.949 415.669L247.699 426.482L303.449 415.669L312.065 444.701L315.695 456.905L540.426 1213.97Z" fill="#C7E747" stroke="#212121" stroke-width="3.14" stroke-miterlimit="10"/>
<path d="M311.857 446.536C283.148 466.278 206.626 488.215 172.521 478.566C187.544 421.934 201.279 376.004 201.279 376.004L296.418 421.719L306.496 428.454L311.864 446.529L311.857 446.536Z" fill="#212121"/>
<path d="M247.699 449.332C308.158 449.332 357.169 400.349 357.169 339.924C357.169 279.499 308.158 230.516 247.699 230.516C187.24 230.516 138.229 279.499 138.229 339.924C138.229 400.349 187.24 449.332 247.699 449.332Z" fill="#C7E747" stroke="#212121" stroke-width="3.14" stroke-miterlimit="10"/>
<path d="M337.616 328.765C335.026 328.765 332.775 326.861 332.408 324.224C331.189 315.453 326.23 293.184 306.593 275.85C290.206 261.383 271.886 257.596 262.424 256.627C259.529 256.329 257.424 253.747 257.721 250.854C258.019 247.96 260.617 245.863 263.498 246.153C274.213 247.247 294.971 251.539 313.568 267.959C335.843 287.625 341.461 312.844 342.846 322.777C343.248 325.657 341.232 328.315 338.351 328.717C338.101 328.751 337.859 328.765 337.616 328.765Z" fill="#FFFEE9" stroke="#212121" stroke-width="2.54" stroke-miterlimit="10" stroke-linecap="round"/>
<path d="M301.198 468.037C307.743 492.943 314.288 517.85 320.841 542.757L301.198 468.037Z" fill="#FFFEE9"/>
<path d="M301.198 468.037C307.743 492.943 314.288 517.85 320.841 542.757" stroke="#212121" stroke-width="2.54" stroke-miterlimit="10" stroke-linecap="round"/>
<path d="M320.834 548.032C318.5 548.032 316.367 546.467 315.743 544.1L296.1 469.373C295.359 466.562 297.042 463.683 299.854 462.942C302.666 462.201 305.548 463.883 306.289 466.694L325.932 541.421C326.673 544.231 324.99 547.111 322.178 547.852C321.727 547.97 321.277 548.025 320.834 548.025V548.032Z" fill="#FFFEE9" stroke="#212121" stroke-width="2.54" stroke-miterlimit="10" stroke-linecap="round"/>
<path d="M326.832 563.143C328.945 571.52 331.05 579.903 333.163 588.279L326.832 563.143Z" fill="#FFFEE9"/>
<path d="M326.832 563.143C328.945 571.52 331.05 579.903 333.163 588.279" stroke="#212121" stroke-width="2.54" stroke-miterlimit="10" stroke-linecap="round"/>
<path d="M333.156 593.547C330.801 593.547 328.654 591.954 328.051 589.566L321.721 564.431C321.007 561.614 322.725 558.748 325.544 558.042C328.363 557.329 331.23 559.038 331.937 561.863L338.267 586.998C338.981 589.815 337.263 592.681 334.444 593.387C334.015 593.498 333.578 593.547 333.156 593.547Z" fill="#FFFEE9" stroke="#212121" stroke-width="2.54" stroke-miterlimit="10" stroke-linecap="round"/>
<path d="M296.667 1005.91C31.3337 996.749 77.3036 870.374 139.003 875.171C-10.8684 803.836 -50.4384 632.742 67.773 689.796C-51.0895 576.013 -9.88487 482.595 180.423 648.483C370.723 814.372 466.736 1011.79 296.667 1005.92V1005.91Z" fill="#212121"/>
<path d="M306.253 1024.07C42.485 993.911 98.3319 871.578 159.457 881.249C15.7148 798.263 -10.1619 624.573 103.16 690.814C-6.30395 567.976 42.1872 478.109 218.732 658.555C395.277 839.001 475.317 1043.41 306.26 1024.08L306.253 1024.07Z" fill="#5D5FEF" stroke="#212121" stroke-width="3.14" stroke-miterlimit="10"/>
<path d="M83.011 644.607C69.3315 622.545 51.9049 591.63 60.6182 569.167" stroke="#212121" stroke-width="17.13" stroke-miterlimit="10" stroke-linecap="round"/>
<path d="M83.011 644.607C69.3315 622.545 51.9049 591.63 60.6182 569.167" stroke="#FFFEE9" stroke-width="12.85" stroke-miterlimit="10" stroke-linecap="round"/>
<path d="M137.881 846.097C113.099 828.313 96.1916 809.796 85.4073 796.145C81.8264 791.611 61.6501 765.707 52.729 735.782C48.8018 722.622 47.9083 711.533 50.4849 700.443C51.5862 695.722 53.0892 691.977 54.2182 689.492" stroke="#212121" stroke-width="17.13" stroke-miterlimit="10" stroke-linecap="round"/>
<path d="M137.881 846.097C113.099 828.313 96.1916 809.796 85.4073 796.145C81.8264 791.611 61.6501 765.707 52.729 735.782C48.8018 722.622 47.9083 711.533 50.4849 700.443C51.5862 695.722 53.0892 691.977 54.2182 689.492" stroke="#FFFEE9" stroke-width="12.85" stroke-miterlimit="10" stroke-linecap="round"/>
</g>
<rect x="0.5" y="0.5" width="657" height="775" rx="29.5" stroke="black"/>
<defs>
<clipPath id="clip0_121_1572">
<rect width="658" height="776" rx="30" fill="white"/>
</clipPath>
</defs>
</svg>
