<svg width="464" height="198" viewBox="0 0 464 198" fill="none" xmlns="http://www.w3.org/2000/svg">
<g clip-path="url(#clip0_132_3628)">
<path d="M104.144 94.1668V85.6652L135.921 47.9984L141.109 53.2725H106.106V41.4434H150.072V49.8784L118.378 87.6284L113.173 82.8701H150.903V94.1668H104.144Z" fill="#242424"/>
<path d="M155.459 94.167V54.1544H167.581V94.167H155.459ZM161.479 45.9522C159.217 45.9522 157.471 45.4198 156.208 44.3717C154.961 43.2736 154.329 41.7097 154.329 39.6966C154.329 37.8831 154.961 36.4024 156.208 35.2544C157.505 34.1065 159.267 33.5242 161.479 33.5242C163.69 33.5242 165.486 34.0732 166.75 35.1879C167.997 36.236 168.629 37.75 168.629 39.7132C168.629 41.6764 167.981 43.074 166.667 44.2386C165.42 45.3865 163.674 45.9688 161.479 45.9688V45.9522Z" fill="#242424"/>
<path d="M187.818 38.4155H175.763V94.167H187.818V38.4155Z" fill="#242424"/>
<path d="M214.573 94.9322C209.701 94.9322 205.444 94.0504 201.769 92.3035C198.161 90.4901 195.351 88.061 193.339 84.9998C191.327 81.8886 190.329 78.3449 190.329 74.3686C190.329 71.2075 190.911 68.3459 192.058 65.7837C193.206 63.2216 194.819 61.0089 196.881 59.1621C198.943 57.2987 201.354 55.8679 204.114 54.8697C206.874 53.8715 209.868 53.3557 213.077 53.3557C216.286 53.3557 219.046 53.8548 221.657 54.8697C224.268 55.818 226.529 57.1989 228.441 59.0124C230.404 60.8258 231.9 62.9554 232.964 65.4177C234.012 67.88 234.494 70.5919 234.394 73.5533L234.328 76.9473H198.261L196.532 69.9431H224.55L223.27 71.4571V69.9431C223.12 68.6953 222.572 67.5639 221.607 66.5491C220.709 65.5508 219.529 64.7689 218.065 64.2198C216.602 63.6209 215.006 63.3214 213.243 63.3214C210.982 63.3214 208.97 63.7041 207.224 64.4528C205.461 65.1515 204.081 66.2662 203.083 67.7636C202.135 69.2776 201.653 71.1742 201.653 73.4868C201.653 75.7994 202.235 77.6295 203.382 79.2932C204.58 80.9569 206.276 82.2546 208.421 83.2029C210.632 84.1513 213.21 84.6338 216.17 84.6338C218.73 84.6338 220.859 84.3343 222.572 83.7353C224.334 83.0865 225.914 82.2713 227.311 81.3229L232.732 89.1591C231.069 90.4069 229.24 91.4883 227.228 92.4034C225.265 93.2519 223.22 93.8841 221.058 94.2834C218.947 94.7326 216.785 94.9655 214.59 94.9655L214.573 94.9322Z" fill="#242424"/>
<path d="M250.092 38.4155H238.036V94.167H250.092V38.4155Z" fill="#242424"/>
<path d="M276.847 94.9322C271.975 94.9322 267.718 94.0504 264.043 92.3035C260.435 90.4901 257.624 88.061 255.612 84.9998C253.6 81.8886 252.603 78.3449 252.603 74.3686C252.603 71.2075 253.185 68.3459 254.332 65.7837C255.479 63.2216 257.092 61.0089 259.154 59.1621C261.216 57.2987 263.627 55.8679 266.388 54.8697C269.148 53.8715 272.141 53.3557 275.35 53.3557C278.56 53.3557 281.32 53.8548 283.931 54.8697C286.541 55.818 288.803 57.1989 290.715 59.0124C292.677 60.8258 294.174 62.9554 295.238 65.4177C296.285 67.88 296.768 70.5919 296.668 73.5533L296.585 76.9473H260.518L258.788 69.9431H286.791L285.51 71.4571V69.9431C285.361 68.6953 284.812 67.5639 283.847 66.5491C282.949 65.5508 281.769 64.7689 280.306 64.2198C278.842 63.6209 277.246 63.3214 275.483 63.3214C273.222 63.3214 271.21 63.7041 269.464 64.4528C267.701 65.1515 266.321 66.2662 265.323 67.7636C264.375 69.2776 263.893 71.1742 263.893 73.4868C263.893 75.7994 264.475 77.6295 265.623 79.2932C266.82 80.9569 268.516 82.2546 270.661 83.2029C272.873 84.1513 275.45 84.6338 278.41 84.6338C280.971 84.6338 283.099 84.3343 284.812 83.7353C286.574 83.0865 288.154 82.2713 289.551 81.3229L294.972 89.1591C293.309 90.4069 291.48 91.4883 289.468 92.4034C287.506 93.2519 285.46 93.8841 283.299 94.2834C281.187 94.7326 279.025 94.9655 276.83 94.9655L276.847 94.9322Z" fill="#242424"/>
<path d="M133.51 162.03C129.336 162.03 125.445 161.381 121.837 160.067C118.278 158.703 115.135 156.823 112.425 154.41C109.764 151.998 107.702 149.136 106.256 145.825C104.792 142.465 104.077 138.738 104.077 134.678C104.077 130.619 104.826 127.075 106.339 123.748C107.902 120.437 109.997 117.575 112.658 115.163C115.318 112.751 118.461 110.871 122.069 109.506C125.678 108.142 129.569 107.477 133.743 107.477C136.603 107.477 139.363 107.826 142.023 108.525C144.734 109.223 147.245 110.205 149.556 111.47C151.868 112.717 153.83 114.165 155.426 115.762L147.827 125.262C146.63 124.114 145.316 123.099 143.919 122.25C142.506 121.352 140.926 120.637 139.18 120.138C137.417 119.588 135.489 119.306 133.377 119.306C131.265 119.306 129.303 119.655 127.357 120.354C125.395 121.053 123.666 122.084 122.169 123.448C120.656 124.746 119.459 126.393 118.561 128.34C117.713 130.253 117.28 132.416 117.28 134.812C117.28 137.207 117.729 139.387 118.644 141.283C119.542 143.197 120.772 144.827 122.335 146.175C123.948 147.473 125.794 148.487 127.906 149.186C130.018 149.885 132.296 150.234 134.757 150.234C136.919 150.234 138.881 149.935 140.627 149.336C142.389 148.737 143.969 148.005 145.366 147.156C146.779 146.258 148.026 145.293 149.124 144.295L155.226 154.161C153.863 155.458 152.067 156.723 149.806 157.921C147.544 159.119 145.017 160.1 142.206 160.866C139.396 161.614 136.503 161.997 133.543 161.997L133.51 162.03Z" fill="#242424"/>
<path d="M178.041 162.03C173.368 162.03 169.228 161.132 165.619 159.318C162.011 157.505 159.168 155.043 157.106 151.931C155.044 148.82 154.013 145.243 154.013 141.234C154.013 137.224 155.044 133.647 157.106 130.536C159.168 127.425 161.994 124.962 165.619 123.149C169.228 121.335 173.368 120.437 178.041 120.437C182.713 120.437 186.754 121.335 190.313 123.149C193.921 124.962 196.764 127.425 198.826 130.536C200.888 133.647 201.919 137.224 201.919 141.234C201.919 145.243 200.888 148.82 198.826 151.931C196.764 155.043 193.938 157.505 190.313 159.318C186.754 161.132 182.663 162.03 178.041 162.03ZM178.041 151.632C180.202 151.632 182.165 151.183 183.911 150.268C185.723 149.369 187.12 148.138 188.134 146.574C189.182 145.01 189.697 143.23 189.647 141.217C189.697 139.204 189.198 137.407 188.134 135.793C187.137 134.179 185.723 132.948 183.911 132.1C182.148 131.201 180.202 130.735 178.041 130.735C175.879 130.735 173.801 131.185 171.938 132.1C170.126 132.998 168.729 134.229 167.715 135.793C166.717 137.357 166.201 139.154 166.201 141.217C166.201 143.28 166.7 145.01 167.715 146.574C168.712 148.138 170.126 149.369 171.938 150.268C173.801 151.166 175.829 151.632 178.041 151.632Z" fill="#242424"/>
<path d="M205.544 161.282V121.269H216.985L217.367 130.619L214.507 131.451C215.155 129.488 216.27 127.691 217.816 126.027C219.429 124.364 221.358 123.033 223.619 122.034C225.931 120.986 228.408 120.454 231.069 120.454C234.478 120.454 237.371 121.136 239.732 122.484C242.093 123.848 243.873 125.778 245.087 128.29C246.284 130.752 246.899 133.697 246.899 137.108V161.298H234.777V138.855C234.777 137.091 234.444 135.61 233.796 134.413C233.197 133.215 232.266 132.283 231.002 131.617C229.805 130.969 228.392 130.636 226.779 130.636C225.365 130.636 224.085 130.885 222.938 131.385C221.84 131.834 220.876 132.466 220.077 133.265C219.279 134.013 218.647 134.878 218.198 135.827C217.799 136.775 217.6 137.757 217.6 138.771V161.298H205.544V161.282Z" fill="#242424"/>
<path d="M269.248 162.03C264.824 162.03 260.867 161.398 257.358 160.15C253.9 158.903 251.106 157.106 248.994 154.793L256.294 148.321C258.007 149.935 260.035 151.166 262.397 152.015C264.758 152.863 267.236 153.296 269.846 153.296C270.644 153.296 271.426 153.213 272.174 153.063C272.972 152.913 273.654 152.713 274.203 152.464C274.801 152.164 275.284 151.815 275.633 151.416C275.982 151.016 276.165 150.517 276.165 149.902C276.165 148.953 275.566 148.188 274.353 147.639C273.504 147.34 272.424 147.04 271.11 146.741C269.813 146.441 268.316 146.108 266.67 145.759C263.91 145.26 261.482 144.661 259.37 143.946C257.308 143.197 255.579 142.265 254.182 141.151C252.985 140.102 252.054 138.888 251.389 137.54C250.74 136.176 250.408 134.595 250.408 132.799C250.408 131.002 250.89 129.255 251.838 127.758C252.785 126.194 254.116 124.896 255.828 123.848C257.541 122.75 259.487 121.918 261.698 121.369C263.91 120.77 266.221 120.47 268.632 120.47C271.043 120.47 273.405 120.72 275.716 121.219C278.027 121.668 280.206 122.35 282.268 123.249C284.33 124.097 286.125 125.212 287.688 126.56L281.519 133.797C280.422 132.948 279.142 132.166 277.678 131.468C276.215 130.769 274.668 130.22 273.006 129.804C271.393 129.355 269.813 129.122 268.266 129.122C267.418 129.122 266.587 129.172 265.789 129.272C265.041 129.371 264.375 129.571 263.827 129.87C263.278 130.12 262.829 130.453 262.463 130.852C262.164 131.201 262.014 131.651 262.014 132.216C262.014 132.666 262.147 133.098 262.397 133.497C262.646 133.897 263.029 134.229 263.527 134.479C264.226 134.928 265.257 135.328 266.62 135.677C268.034 136.026 269.78 136.409 271.891 136.808C274.951 137.457 277.562 138.222 279.723 139.071C281.885 139.869 283.615 140.851 284.912 142.016C285.959 142.814 286.741 143.829 287.24 145.027C287.738 146.175 287.988 147.456 287.988 148.87C287.988 151.432 287.156 153.712 285.51 155.725C283.897 157.688 281.702 159.235 278.892 160.4C276.132 161.498 272.922 162.064 269.248 162.064V162.03Z" fill="#242424"/>
<path d="M291.064 161.282V121.269H303.186V161.282H291.064ZM297.1 113.05C294.839 113.05 293.076 112.518 291.829 111.47C290.582 110.372 289.95 108.808 289.95 106.794C289.95 104.981 290.582 103.5 291.829 102.352C293.126 101.204 294.889 100.622 297.1 100.622C299.312 100.622 301.108 101.171 302.372 102.286C303.619 103.334 304.251 104.848 304.251 106.811C304.251 108.774 303.602 110.172 302.288 111.336C301.041 112.484 299.295 113.067 297.1 113.067V113.05Z" fill="#242424"/>
<path d="M323.44 105.53H311.384V161.281H323.44V105.53Z" fill="#242424"/>
<path d="M331.787 161.282V121.269H343.909V161.282H331.787ZM337.823 113.05C335.562 113.05 333.816 112.518 332.552 111.47C331.305 110.372 330.673 108.808 330.673 106.794C330.673 104.981 331.305 103.5 332.552 102.352C333.849 101.204 335.612 100.622 337.823 100.622C340.035 100.622 341.831 101.171 343.095 102.286C344.342 103.334 344.974 104.848 344.974 106.811C344.974 108.774 344.325 110.172 343.011 111.336C341.764 112.484 340.018 113.067 337.823 113.067V113.05Z" fill="#242424"/>
<path d="M371.828 162.03C366.956 162.03 362.699 161.149 359.025 159.402C355.416 157.588 352.606 155.159 350.594 152.098C348.582 148.987 347.584 145.443 347.584 141.467C347.584 138.306 348.166 135.444 349.314 132.882C350.461 130.32 352.074 128.107 354.136 126.26C356.198 124.397 358.609 122.966 361.369 121.968C364.13 120.97 367.123 120.454 370.332 120.454C373.541 120.454 376.302 120.953 378.912 121.968C381.523 122.916 383.784 124.297 385.697 126.111C387.659 127.924 389.155 130.054 390.22 132.516C391.267 134.978 391.749 137.69 391.65 140.651L391.566 144.045H355.499L353.77 137.041H381.789L380.509 138.555V137.041C380.359 135.793 379.81 134.662 378.846 133.647C377.948 132.649 376.767 131.867 375.304 131.318C373.841 130.719 372.244 130.42 370.482 130.42C368.22 130.42 366.208 130.802 364.462 131.551C362.699 132.25 361.319 133.364 360.322 134.862C359.374 136.376 358.892 138.272 358.892 140.585C358.892 142.898 359.474 144.728 360.621 146.391C361.818 148.055 363.514 149.353 365.659 150.301C367.871 151.249 370.448 151.732 373.408 151.732C375.969 151.732 378.097 151.432 379.81 150.833C381.573 150.185 383.152 149.369 384.549 148.421L389.97 156.257C388.307 157.505 386.478 158.586 384.466 159.502C382.504 160.35 380.459 160.982 378.297 161.382C376.185 161.831 374.023 162.064 371.828 162.064V162.03Z" fill="#242424"/>
<path d="M395.291 161.282V121.269H406.732L407.264 135.061L404.404 133.631C405.052 131.168 406.183 128.955 407.796 127.009C409.459 124.996 411.338 123.415 413.45 122.267C415.611 121.069 417.889 120.454 420.3 120.454C421.597 120.454 422.828 120.587 423.992 120.837C425.189 121.086 426.22 121.419 427.085 121.818L423.776 134.995C423.028 134.446 421.997 134.013 420.683 133.714C419.436 133.414 418.155 133.265 416.842 133.265C415.378 133.265 414.048 133.514 412.851 134.013C411.704 134.462 410.722 135.111 409.908 135.976C409.109 136.775 408.478 137.707 408.029 138.771C407.63 139.82 407.43 140.951 407.43 142.165V161.298H395.308L395.291 161.282Z" fill="#242424"/>
<path d="M429.895 161.282V121.269H442.017V161.282H429.895ZM435.931 113.05C433.67 113.05 431.907 112.518 430.66 111.47C429.413 110.372 428.781 108.808 428.781 106.794C428.781 104.981 429.413 103.5 430.66 102.352C431.957 101.204 433.72 100.622 435.931 100.622C438.143 100.622 439.939 101.171 441.202 102.286C442.45 103.334 443.081 104.848 443.081 106.811C443.081 108.774 442.433 110.172 441.119 111.336C439.872 112.484 438.126 113.067 435.931 113.067V113.05Z" fill="#242424"/>
<path d="M450.814 161.282V121.269H462.936V161.282H450.814ZM456.833 113.05C454.572 113.05 452.809 112.518 451.562 111.47C450.315 110.372 449.683 108.808 449.683 106.794C449.683 104.981 450.315 103.5 451.562 102.352C452.859 101.204 454.622 100.622 456.833 100.622C459.045 100.622 460.841 101.171 462.104 102.286C463.351 103.334 463.983 104.848 463.983 106.811C463.983 108.774 463.335 110.172 462.021 111.336C460.774 112.484 459.028 113.067 456.833 113.067V113.05Z" fill="#242424"/>
<path d="M167.332 27.4515C149.556 10.4482 125.478 0 98.9392 0C44.2982 0 0 44.3216 0 98.9917C0 153.662 44.2982 197.983 98.9392 197.983C126.659 197.983 151.735 186.57 169.693 168.186C167.166 167.62 164.755 166.772 162.46 165.624C160.398 164.592 158.486 163.378 156.773 161.964C155.626 162.762 154.395 163.494 153.098 164.193C150.304 165.69 147.261 166.855 144.002 167.72C140.593 168.635 137.085 169.084 133.51 169.084C128.588 169.084 123.882 168.319 119.442 166.705C119.409 166.705 119.392 166.689 119.359 166.672H119.326C115.002 165.008 111.111 162.696 107.736 159.684L107.686 159.634C105.325 157.505 103.329 155.076 101.716 152.381C100.802 152.431 99.8704 152.447 98.9392 152.447C69.4237 152.447 45.4788 128.506 45.4788 98.9584C45.4788 69.4106 69.4071 45.4696 98.9392 45.4696C98.9725 45.4696 99.0057 45.4696 99.039 45.4696V41.3935C99.039 37.5004 102.198 34.3227 106.106 34.3227H148.342C149.024 32.7255 150.055 31.278 151.435 30.0136C151.468 29.9803 151.502 29.9471 151.535 29.9138C154.445 27.335 158.02 26.4033 161.479 26.4033C163.408 26.4033 165.42 26.6695 167.332 27.3849V27.4515Z" fill="#242424"/>
</g>
<defs>
<clipPath id="clip0_132_3628">
<rect width="464" height="198" fill="white"/>
</clipPath>
</defs>
</svg>
